<svg width="292.487mm" height="118.979312mm" viewBox="0 0 292.487 118.979312" xmlns="http://www.w3.org/2000/svg"><g id="svgGroup" stroke-linecap="round" fill-rule="evenodd" font-size="9pt" stroke="#000" stroke-width="0.25mm" fill="none" style="stroke:#000;stroke-width:0.25mm;fill:none"><path d="M 164.06454 25.857312 A 0.5 0.5 0 0 0 164.62926 26.282859 L 177.502745 24.473609 A 0.5 0.5 0 0 0 177.928293 23.908889 L 177.914375 23.809862 L 178.161942 23.775069 A 0.5 0.5 0 0 0 178.58749 23.210348 L 176.945247 11.525185 A 0.5 0.5 0 0 0 176.380527 11.099637 L 176.13296 11.134431 L 176.119042 11.035404 A 0.5 0.5 0 0 0 175.554322 10.609856 L 162.680837 12.419107 A 0.5 0.5 0 0 0 162.25529 12.983827 L 162.269207 13.082854 L 162.02164 13.117647 A 0.5 0.5 0 0 0 161.596092 13.682368 L 163.238335 25.367531 A 0.5 0.5 0 0 0 163.803056 25.793078 L 164.050623 25.758285 L 164.06454 25.857312 Z M 182.929145 23.206064 A 0.5 0.5 0 0 0 183.493866 23.631612 L 196.367351 21.822362 A 0.5 0.5 0 0 0 196.792898 21.257641 L 196.778981 21.158614 L 197.026548 21.123821 A 0.5 0.5 0 0 0 197.452095 20.5591 L 195.809853 8.873937 A 0.5 0.5 0 0 0 195.245132 8.44839 L 194.997565 8.483183 L 194.983648 8.384156 A 0.5 0.5 0 0 0 194.418927 7.958609 L 181.545442 9.767859 A 0.5 0.5 0 0 0 181.119895 10.33258 L 181.133812 10.431606 L 180.886245 10.4664 A 0.5 0.5 0 0 0 180.460698 11.03112 L 182.10294 22.716283 A 0.5 0.5 0 0 0 182.667661 23.141831 L 182.915228 23.107038 L 182.929145 23.206064 Z M 201.793753 20.554817 A 0.5 0.5 0 0 0 202.358473 20.980364 L 215.231958 19.171114 A 0.5 0.5 0 0 0 215.657505 18.606393 L 215.643588 18.507367 L 215.891155 18.472573 A 0.5 0.5 0 0 0 216.316703 17.907853 L 214.67446 6.22269 A 0.5 0.5 0 0 0 214.109739 5.797142 L 213.862172 5.831935 L 213.848255 5.732909 A 0.5 0.5 0 0 0 213.283535 5.307361 L 200.41005 7.116611 A 0.5 0.5 0 0 0 199.984502 7.681332 L 199.99842 7.780359 L 199.750853 7.815152 A 0.5 0.5 0 0 0 199.325305 8.379873 L 200.967548 20.065036 A 0.5 0.5 0 0 0 201.532268 20.490583 L 201.779835 20.45579 L 201.793753 20.554817 Z M 220.65836 17.903569 A 0.5 0.5 0 0 0 221.22308 18.329117 L 234.096565 16.519866 A 0.5 0.5 0 0 0 234.522113 15.955146 L 234.508195 15.856119 L 234.755762 15.821326 A 0.5 0.5 0 0 0 235.18131 15.256605 L 233.539067 3.571442 A 0.5 0.5 0 0 0 232.974347 3.145895 L 232.72678 3.180688 L 232.712862 3.081661 A 0.5 0.5 0 0 0 232.148142 2.656114 L 219.274657 4.465364 A 0.5 0.5 0 0 0 218.84911 5.030084 L 218.863027 5.129111 L 218.61546 5.163904 A 0.5 0.5 0 0 0 218.189912 5.728625 L 219.832155 17.413788 A 0.5 0.5 0 0 0 220.396876 17.839336 L 220.644443 17.804542 L 220.65836 17.903569 Z M 239.522965 15.252322 A 0.5 0.5 0 0 0 240.087686 15.677869 L 252.961171 13.868619 A 0.5 0.5 0 0 0 253.386718 13.303898 L 253.372801 13.204871 L 253.620368 13.170078 A 0.5 0.5 0 0 0 254.045915 12.605358 L 252.403673 0.920194 A 0.5 0.5 0 0 0 251.838952 0.494647 L 251.591385 0.52944 L 251.577468 0.430413 A 0.5 0.5 0 0 0 251.012747 0.004866 L 238.139262 1.814116 A 0.5 0.5 0 0 0 237.713715 2.378837 L 237.727632 2.477864 L 237.480065 2.512657 A 0.5 0.5 0 0 0 237.054518 3.077378 L 238.69676 14.762541 A 0.5 0.5 0 0 0 239.261481 15.188088 L 239.509048 15.153295 L 239.522965 15.252322 Z M 161.999634 45.38473 A 0.5 0.5 0 0 0 162.564355 45.810277 L 175.43784 44.001027 A 0.5 0.5 0 0 0 175.863387 43.436306 L 175.84947 43.337279 L 176.097037 43.302486 A 0.5 0.5 0 0 0 176.522584 42.737766 L 174.880342 31.052602 A 0.5 0.5 0 0 0 174.315621 30.627055 L 174.068054 30.661848 L 174.054137 30.562821 A 0.5 0.5 0 0 0 173.489416 30.137274 L 160.615931 31.946524 A 0.5 0.5 0 0 0 160.190384 32.511245 L 160.204301 32.610272 L 159.956734 32.645065 A 0.5 0.5 0 0 0 159.531187 33.209786 L 161.173429 44.894949 A 0.5 0.5 0 0 0 161.73815 45.320496 L 161.985717 45.285703 L 161.999634 45.38473 Z M 180.864241 42.733482 A 0.5 0.5 0 0 0 181.428962 43.15903 L 194.302447 41.349779 A 0.5 0.5 0 0 0 194.727994 40.785059 L 194.714077 40.686032 L 194.961644 40.651239 A 0.5 0.5 0 0 0 195.387192 40.086518 L 193.744949 28.401355 A 0.5 0.5 0 0 0 193.180228 27.975807 L 192.932661 28.010601 L 192.918744 27.911574 A 0.5 0.5 0 0 0 192.354023 27.486026 L 179.480539 29.295277 A 0.5 0.5 0 0 0 179.054991 29.859997 L 179.068908 29.959024 L 178.821341 29.993817 A 0.5 0.5 0 0 0 178.395794 30.558538 L 180.038037 42.243701 A 0.5 0.5 0 0 0 180.602757 42.669249 L 180.850324 42.634455 L 180.864241 42.733482 Z M 199.728849 40.082235 A 0.5 0.5 0 0 0 200.293569 40.507782 L 213.167054 38.698532 A 0.5 0.5 0 0 0 213.592602 38.133811 L 213.578684 38.034784 L 213.826251 37.999991 A 0.5 0.5 0 0 0 214.251799 37.43527 L 212.609556 25.750107 A 0.5 0.5 0 0 0 212.044836 25.32456 L 211.797269 25.359353 L 211.783351 25.260326 A 0.5 0.5 0 0 0 211.218631 24.834779 L 198.345146 26.644029 A 0.5 0.5 0 0 0 197.919598 27.20875 L 197.933516 27.307777 L 197.685949 27.34257 A 0.5 0.5 0 0 0 197.260401 27.90729 L 198.902644 39.592454 A 0.5 0.5 0 0 0 199.467364 40.018001 L 199.714931 39.983208 L 199.728849 40.082235 Z M 218.593456 37.430987 A 0.5 0.5 0 0 0 219.158177 37.856535 L 232.031662 36.047284 A 0.5 0.5 0 0 0 232.457209 35.482564 L 232.443292 35.383537 L 232.690859 35.348744 A 0.5 0.5 0 0 0 233.116406 34.784023 L 231.474164 23.09886 A 0.5 0.5 0 0 0 230.909443 22.673312 L 230.661876 22.708106 L 230.647959 22.609079 A 0.5 0.5 0 0 0 230.083238 22.183531 L 217.209753 23.992782 A 0.5 0.5 0 0 0 216.784206 24.557502 L 216.798123 24.656529 L 216.550556 24.691322 A 0.5 0.5 0 0 0 216.125009 25.256043 L 217.767251 36.941206 A 0.5 0.5 0 0 0 218.331972 37.366754 L 218.579539 37.33196 L 218.593456 37.430987 Z M 237.458061 34.77974 A 0.5 0.5 0 0 0 238.022782 35.205287 L 250.896267 33.396037 A 0.5 0.5 0 0 0 251.321814 32.831316 L 251.307897 32.732289 L 251.555464 32.697496 A 0.5 0.5 0 0 0 251.981012 32.132775 L 250.338769 20.447612 A 0.5 0.5 0 0 0 249.774048 20.022065 L 249.526481 20.056858 L 249.512564 19.957831 A 0.5 0.5 0 0 0 248.947843 19.532284 L 236.074359 21.341534 A 0.5 0.5 0 0 0 235.648811 21.906255 L 235.662728 22.005281 L 235.415161 22.040075 A 0.5 0.5 0 0 0 234.989614 22.604795 L 236.631857 34.289958 A 0.5 0.5 0 0 0 237.196577 34.715506 L 237.444144 34.680713 L 237.458061 34.77974 Z M 169.367035 63.586525 A 0.5 0.5 0 0 0 169.931756 64.012072 L 182.80524 62.202822 A 0.5 0.5 0 0 0 183.230788 61.638101 L 183.216871 61.539074 L 183.464438 61.504281 A 0.5 0.5 0 0 0 183.889985 60.939561 L 182.247742 49.254397 A 0.5 0.5 0 0 0 181.683022 48.82885 L 181.435455 48.863643 L 181.421538 48.764616 A 0.5 0.5 0 0 0 180.856817 48.339069 L 167.983332 50.148319 A 0.5 0.5 0 0 0 167.557785 50.71304 L 167.571702 50.812067 L 167.324135 50.84686 A 0.5 0.5 0 0 0 166.898587 51.411581 L 168.54083 63.096744 A 0.5 0.5 0 0 0 169.105551 63.522291 L 169.353118 63.487498 L 169.367035 63.586525 Z M 188.23164 60.935277 A 0.5 0.5 0 0 0 188.796361 61.360825 L 201.669846 59.551574 A 0.5 0.5 0 0 0 202.095393 58.986854 L 202.081476 58.887827 L 202.329043 58.853034 A 0.5 0.5 0 0 0 202.75459 58.288313 L 201.112348 46.60315 A 0.5 0.5 0 0 0 200.547627 46.177602 L 200.30006 46.212396 L 200.286143 46.113369 A 0.5 0.5 0 0 0 199.721422 45.687821 L 186.847937 47.497072 A 0.5 0.5 0 0 0 186.42239 48.061792 L 186.436307 48.160819 L 186.18874 48.195612 A 0.5 0.5 0 0 0 185.763193 48.760333 L 187.405435 60.445496 A 0.5 0.5 0 0 0 187.970156 60.871044 L 188.217723 60.83625 L 188.23164 60.935277 Z M 207.096248 58.28403 A 0.5 0.5 0 0 0 207.660968 58.709577 L 220.534453 56.900327 A 0.5 0.5 0 0 0 220.960001 56.335606 L 220.946083 56.236579 L 221.19365 56.201786 A 0.5 0.5 0 0 0 221.619198 55.637065 L 219.976955 43.951902 A 0.5 0.5 0 0 0 219.412235 43.526355 L 219.164668 43.561148 L 219.15075 43.462121 A 0.5 0.5 0 0 0 218.58603 43.036574 L 205.712545 44.845824 A 0.5 0.5 0 0 0 205.286997 45.410545 L 205.300915 45.509572 L 205.053348 45.544365 A 0.5 0.5 0 0 0 204.6278 46.109085 L 206.270043 57.794249 A 0.5 0.5 0 0 0 206.834763 58.219796 L 207.08233 58.185003 L 207.096248 58.28403 Z M 225.960855 55.632782 A 0.5 0.5 0 0 0 226.525576 56.058329 L 239.39906 54.249079 A 0.5 0.5 0 0 0 239.824608 53.684359 L 239.810691 53.585332 L 240.058258 53.550539 A 0.5 0.5 0 0 0 240.483805 52.985818 L 238.841562 41.300655 A 0.5 0.5 0 0 0 238.276842 40.875107 L 238.029275 40.909901 L 238.015358 40.810874 A 0.5 0.5 0 0 0 237.450637 40.385326 L 224.577152 42.194577 A 0.5 0.5 0 0 0 224.151605 42.759297 L 224.165522 42.858324 L 223.917955 42.893117 A 0.5 0.5 0 0 0 223.492407 43.457838 L 225.13465 55.143001 A 0.5 0.5 0 0 0 225.699371 55.568548 L 225.946938 55.533755 L 225.960855 55.632782 Z M 162.585978 83.776755 A 0.5 0.5 0 0 0 163.150699 84.202302 L 176.024183 82.393052 A 0.5 0.5 0 0 0 176.449731 81.828331 L 176.435814 81.729305 L 176.683381 81.694511 A 0.5 0.5 0 0 0 177.108928 81.129791 L 175.466685 69.444628 A 0.5 0.5 0 0 0 174.901965 69.01908 L 174.654398 69.053873 L 174.640481 68.954846 A 0.5 0.5 0 0 0 174.07576 68.529299 L 161.202275 70.338549 A 0.5 0.5 0 0 0 160.776728 70.90327 L 160.790645 71.002297 L 160.543078 71.03709 A 0.5 0.5 0 0 0 160.11753 71.601811 L 161.759773 83.286974 A 0.5 0.5 0 0 0 162.324494 83.712521 L 162.572061 83.677728 L 162.585978 83.776755 Z M 181.450585 81.125507 A 0.5 0.5 0 0 0 182.015306 81.551055 L 194.888791 79.741804 A 0.5 0.5 0 0 0 195.314338 79.177084 L 195.300421 79.078057 L 195.547988 79.043264 A 0.5 0.5 0 0 0 195.973535 78.478543 L 194.331293 66.79338 A 0.5 0.5 0 0 0 193.766572 66.367832 L 193.519005 66.402626 L 193.505088 66.303599 A 0.5 0.5 0 0 0 192.940367 65.878051 L 180.066882 67.687302 A 0.5 0.5 0 0 0 179.641335 68.252022 L 179.655252 68.351049 L 179.407685 68.385842 A 0.5 0.5 0 0 0 178.982138 68.950563 L 180.62438 80.635726 A 0.5 0.5 0 0 0 181.189101 81.061274 L 181.436668 81.02648 L 181.450585 81.125507 Z M 200.315193 78.47426 A 0.5 0.5 0 0 0 200.879913 78.899807 L 213.753398 77.090557 A 0.5 0.5 0 0 0 214.178945 76.525836 L 214.165028 76.426809 L 214.412595 76.392016 A 0.5 0.5 0 0 0 214.838143 75.827296 L 213.1959 64.142132 A 0.5 0.5 0 0 0 212.631179 63.716585 L 212.383612 63.751378 L 212.369695 63.652351 A 0.5 0.5 0 0 0 211.804975 63.226804 L 198.93149 65.036054 A 0.5 0.5 0 0 0 198.505942 65.600775 L 198.51986 65.699802 L 198.272293 65.734595 A 0.5 0.5 0 0 0 197.846745 66.299316 L 199.488988 77.984479 A 0.5 0.5 0 0 0 200.053708 78.410026 L 200.301275 78.375233 L 200.315193 78.47426 Z M 219.179798 75.823012 A 0.5 0.5 0 0 0 219.744519 76.24856 L 232.618003 74.439309 A 0.5 0.5 0 0 0 233.043551 73.874589 L 233.029634 73.775562 L 233.277201 73.740769 A 0.5 0.5 0 0 0 233.702748 73.176048 L 232.060505 61.490885 A 0.5 0.5 0 0 0 231.495785 61.065337 L 231.248218 61.100131 L 231.234301 61.001104 A 0.5 0.5 0 0 0 230.66958 60.575556 L 217.796095 62.384807 A 0.5 0.5 0 0 0 217.370548 62.949527 L 217.384465 63.048554 L 217.136898 63.083347 A 0.5 0.5 0 0 0 216.71135 63.648068 L 218.353593 75.333231 A 0.5 0.5 0 0 0 218.918314 75.758779 L 219.165881 75.723985 L 219.179798 75.823012 Z M 193.534135 98.66449 A 0.5 0.5 0 0 0 194.098856 99.090037 L 206.972341 97.280787 A 0.5 0.5 0 0 0 207.397888 96.716066 L 207.383971 96.61704 L 207.631538 96.582246 A 0.5 0.5 0 0 0 208.057086 96.017526 L 206.414843 84.332363 A 0.5 0.5 0 0 0 205.850122 83.906815 L 205.602555 83.941608 L 205.588638 83.842581 A 0.5 0.5 0 0 0 205.023917 83.417034 L 192.150433 85.226284 A 0.5 0.5 0 0 0 191.724885 85.791005 L 191.738802 85.890032 L 191.491235 85.924825 A 0.5 0.5 0 0 0 191.065688 86.489546 L 192.707931 98.174709 A 0.5 0.5 0 0 0 193.272651 98.600256 L 193.520218 98.565463 L 193.534135 98.66449 Z M 217.114894 95.350432 A 0.5 0.5 0 0 0 217.679615 95.775979 L 230.5531 93.966729 A 0.5 0.5 0 0 0 230.978647 93.402008 L 230.96473 93.302982 L 231.212297 93.268188 A 0.5 0.5 0 0 0 231.637844 92.703468 L 229.995602 81.018305 A 0.5 0.5 0 0 0 229.430881 80.592757 L 229.183314 80.62755 L 229.169397 80.528523 A 0.5 0.5 0 0 0 228.604676 80.102976 L 215.731191 81.912226 A 0.5 0.5 0 0 0 215.305644 82.476947 L 215.319561 82.575974 L 215.071994 82.610767 A 0.5 0.5 0 0 0 214.646447 83.175488 L 216.288689 94.860651 A 0.5 0.5 0 0 0 216.85341 95.286198 L 217.100977 95.251405 L 217.114894 95.350432 Z M 191.469232 118.19191 A 0.5 0.5 0 0 0 192.033952 118.617457 L 204.907437 116.808207 A 0.5 0.5 0 0 0 205.332985 116.243486 L 205.319067 116.144459 L 205.566634 116.109666 A 0.5 0.5 0 0 0 205.992182 115.544945 L 204.349939 103.859782 A 0.5 0.5 0 0 0 203.785219 103.434235 L 203.537652 103.469028 L 203.523734 103.370001 A 0.5 0.5 0 0 0 202.959014 102.944454 L 190.085529 104.753704 A 0.5 0.5 0 0 0 189.659981 105.318425 L 189.673899 105.417451 L 189.426332 105.452245 A 0.5 0.5 0 0 0 189.000784 106.016965 L 190.643027 117.702128 A 0.5 0.5 0 0 0 191.207747 118.127676 L 191.455314 118.092883 L 191.469232 118.19191 Z M 210.333839 115.540662 A 0.5 0.5 0 0 0 210.89856 115.966209 L 223.772044 114.156959 A 0.5 0.5 0 0 0 224.197592 113.592238 L 224.183675 113.493212 L 224.431242 113.458418 A 0.5 0.5 0 0 0 224.856789 112.893698 L 223.214546 101.208535 A 0.5 0.5 0 0 0 222.649826 100.782987 L 222.402259 100.81778 L 222.388342 100.718754 A 0.5 0.5 0 0 0 221.823621 100.293206 L 208.950136 102.102456 A 0.5 0.5 0 0 0 208.524589 102.667177 L 208.538506 102.766204 L 208.290939 102.800997 A 0.5 0.5 0 0 0 207.865391 103.365718 L 209.507634 115.050881 A 0.5 0.5 0 0 0 210.072355 115.476428 L 210.319922 115.441635 L 210.333839 115.540662 Z M 39.4844 13.86687 A 0.5 0.5 0 0 0 39.909948 14.43159 L 52.783433 16.240841 A 0.5 0.5 0 0 0 53.348153 15.815293 L 53.362071 15.716266 L 53.609638 15.75106 A 0.5 0.5 0 0 0 54.174358 15.325512 L 55.816601 3.640349 A 0.5 0.5 0 0 0 55.391053 3.075628 L 55.143486 3.040835 L 55.157404 2.941808 A 0.5 0.5 0 0 0 54.731856 2.377088 L 41.858371 0.567837 A 0.5 0.5 0 0 0 41.293651 0.993385 L 41.279733 1.092412 L 41.032166 1.057618 A 0.5 0.5 0 0 0 40.467446 1.483166 L 38.825203 13.168329 A 0.5 0.5 0 0 0 39.250751 13.73305 L 39.498318 13.767843 L 39.4844 13.86687 Z M 58.349006 16.518117 A 0.5 0.5 0 0 0 58.774553 17.082838 L 71.648038 18.892088 A 0.5 0.5 0 0 0 72.212759 18.466541 L 72.226676 18.367514 L 72.474243 18.402307 A 0.5 0.5 0 0 0 73.038964 17.97676 L 74.681206 6.291596 A 0.5 0.5 0 0 0 74.255659 5.726876 L 74.008092 5.692083 L 74.022009 5.593056 A 0.5 0.5 0 0 0 73.596462 5.028335 L 60.722977 3.219085 A 0.5 0.5 0 0 0 60.158256 3.644632 L 60.144339 3.743659 L 59.896772 3.708866 A 0.5 0.5 0 0 0 59.332051 4.134413 L 57.689809 15.819577 A 0.5 0.5 0 0 0 58.115356 16.384297 L 58.362923 16.41909 L 58.349006 16.518117 Z M 77.213613 19.169365 A 0.5 0.5 0 0 0 77.63916 19.734085 L 90.512645 21.543336 A 0.5 0.5 0 0 0 91.077366 21.117788 L 91.091283 21.018761 L 91.33885 21.053555 A 0.5 0.5 0 0 0 91.903571 20.628007 L 93.545813 8.942844 A 0.5 0.5 0 0 0 93.120266 8.378123 L 92.872699 8.34333 L 92.886616 8.244303 A 0.5 0.5 0 0 0 92.461069 7.679583 L 79.587584 5.870332 A 0.5 0.5 0 0 0 79.022863 6.29588 L 79.008946 6.394907 L 78.761379 6.360113 A 0.5 0.5 0 0 0 78.196658 6.785661 L 76.554416 18.470824 A 0.5 0.5 0 0 0 76.979963 19.035545 L 77.22753 19.070338 L 77.213613 19.169365 Z M 96.07822 21.820612 A 0.5 0.5 0 0 0 96.503768 22.385333 L 109.377253 24.194583 A 0.5 0.5 0 0 0 109.941973 23.769036 L 109.955891 23.670009 L 110.203458 23.704802 A 0.5 0.5 0 0 0 110.768178 23.279255 L 112.410421 11.594091 A 0.5 0.5 0 0 0 111.984873 11.029371 L 111.737306 10.994578 L 111.751224 10.895551 A 0.5 0.5 0 0 0 111.325676 10.33083 L 98.452191 8.52158 A 0.5 0.5 0 0 0 97.887471 8.947127 L 97.873553 9.046154 L 97.625986 9.011361 A 0.5 0.5 0 0 0 97.061266 9.436908 L 95.419023 21.122072 A 0.5 0.5 0 0 0 95.844571 21.686792 L 96.092138 21.721585 L 96.07822 21.820612 Z M 114.942826 24.47186 A 0.5 0.5 0 0 0 115.368373 25.03658 L 128.241858 26.845831 A 0.5 0.5 0 0 0 128.806579 26.420283 L 128.820496 26.321256 L 129.068063 26.35605 A 0.5 0.5 0 0 0 129.632784 25.930502 L 131.275026 14.245339 A 0.5 0.5 0 0 0 130.849479 13.680619 L 130.601912 13.645825 L 130.615829 13.546798 A 0.5 0.5 0 0 0 130.190282 12.982078 L 117.316797 11.172828 A 0.5 0.5 0 0 0 116.752076 11.598375 L 116.738159 11.697402 L 116.490592 11.662609 A 0.5 0.5 0 0 0 115.925871 12.088156 L 114.283629 23.773319 A 0.5 0.5 0 0 0 114.709176 24.33804 L 114.956743 24.372833 L 114.942826 24.47186 Z M 46.265455 34.0571 A 0.5 0.5 0 0 0 46.691003 34.62182 L 59.564488 36.431071 A 0.5 0.5 0 0 0 60.129208 36.005523 L 60.143126 35.906496 L 60.390693 35.94129 A 0.5 0.5 0 0 0 60.955413 35.515742 L 62.597656 23.830579 A 0.5 0.5 0 0 0 62.172108 23.265858 L 61.924541 23.231065 L 61.938459 23.132038 A 0.5 0.5 0 0 0 61.512911 22.567318 L 48.639426 20.758067 A 0.5 0.5 0 0 0 48.074706 21.183615 L 48.060788 21.282642 L 47.813221 21.247848 A 0.5 0.5 0 0 0 47.248501 21.673396 L 45.606258 33.358559 A 0.5 0.5 0 0 0 46.031806 33.92328 L 46.279373 33.958073 L 46.265455 34.0571 Z M 65.130063 36.708347 A 0.5 0.5 0 0 0 65.55561 37.273068 L 78.429095 39.082318 A 0.5 0.5 0 0 0 78.993816 38.656771 L 79.007733 38.557744 L 79.2553 38.592537 A 0.5 0.5 0 0 0 79.820021 38.16699 L 81.462263 26.481827 A 0.5 0.5 0 0 0 81.036716 25.917106 L 80.789149 25.882313 L 80.803066 25.783286 A 0.5 0.5 0 0 0 80.377519 25.218565 L 67.504034 23.409315 A 0.5 0.5 0 0 0 66.939313 23.834862 L 66.925396 23.933889 L 66.677829 23.899096 A 0.5 0.5 0 0 0 66.113108 24.324643 L 64.470866 36.009807 A 0.5 0.5 0 0 0 64.896413 36.574527 L 65.14398 36.609321 L 65.130063 36.708347 Z M 83.994668 39.359595 A 0.5 0.5 0 0 0 84.420216 39.924315 L 97.2937 41.733566 A 0.5 0.5 0 0 0 97.858421 41.308018 L 97.872338 41.208991 L 98.119905 41.243785 A 0.5 0.5 0 0 0 98.684626 40.818237 L 100.326869 29.133074 A 0.5 0.5 0 0 0 99.901321 28.568354 L 99.653754 28.53356 L 99.667671 28.434533 A 0.5 0.5 0 0 0 99.242124 27.869813 L 86.368639 26.060563 A 0.5 0.5 0 0 0 85.803918 26.48611 L 85.790001 26.585137 L 85.542434 26.550344 A 0.5 0.5 0 0 0 84.977714 26.975891 L 83.335471 38.661054 A 0.5 0.5 0 0 0 83.761018 39.225775 L 84.008585 39.260568 L 83.994668 39.359595 Z M 102.859275 42.010842 A 0.5 0.5 0 0 0 103.284823 42.575563 L 116.158308 44.384813 A 0.5 0.5 0 0 0 116.723028 43.959266 L 116.736946 43.860239 L 116.984513 43.895032 A 0.5 0.5 0 0 0 117.549233 43.469485 L 119.191476 31.784322 A 0.5 0.5 0 0 0 118.765928 31.219601 L 118.518361 31.184808 L 118.532279 31.085781 A 0.5 0.5 0 0 0 118.106731 30.52106 L 105.233246 28.71181 A 0.5 0.5 0 0 0 104.668526 29.137358 L 104.654608 29.236384 L 104.407041 29.201591 A 0.5 0.5 0 0 0 103.842321 29.627139 L 102.200078 41.312302 A 0.5 0.5 0 0 0 102.625626 41.877022 L 102.873193 41.911816 L 102.859275 42.010842 Z M 48.330359 53.584519 A 0.5 0.5 0 0 0 48.755907 54.14924 L 61.629392 55.95849 A 0.5 0.5 0 0 0 62.194112 55.532943 L 62.208029 55.433916 L 62.455597 55.468709 A 0.5 0.5 0 0 0 63.020317 55.043162 L 64.66256 43.357999 A 0.5 0.5 0 0 0 64.237012 42.793278 L 63.989445 42.758485 L 64.003362 42.659458 A 0.5 0.5 0 0 0 63.577815 42.094737 L 50.70433 40.285487 A 0.5 0.5 0 0 0 50.13961 40.711035 L 50.125692 40.810061 L 49.878125 40.775268 A 0.5 0.5 0 0 0 49.313405 41.200816 L 47.671162 52.885979 A 0.5 0.5 0 0 0 48.096709 53.450699 L 48.344277 53.485493 L 48.330359 53.584519 Z M 67.194967 56.235767 A 0.5 0.5 0 0 0 67.620514 56.800488 L 80.493999 58.609738 A 0.5 0.5 0 0 0 81.058719 58.18419 L 81.072637 58.085164 L 81.320204 58.119957 A 0.5 0.5 0 0 0 81.884924 57.694409 L 83.527167 46.009246 A 0.5 0.5 0 0 0 83.10162 45.444526 L 82.854052 45.409732 L 82.86797 45.310706 A 0.5 0.5 0 0 0 82.442422 44.745985 L 69.568937 42.936735 A 0.5 0.5 0 0 0 69.004217 43.362282 L 68.9903 43.461309 L 68.742732 43.426516 A 0.5 0.5 0 0 0 68.178012 43.852063 L 66.535769 55.537226 A 0.5 0.5 0 0 0 66.961317 56.101947 L 67.208884 56.13674 L 67.194967 56.235767 Z M 86.059574 58.887015 A 0.5 0.5 0 0 0 86.485121 59.451735 L 99.358606 61.260985 A 0.5 0.5 0 0 0 99.923327 60.835438 L 99.937244 60.736411 L 100.184811 60.771204 A 0.5 0.5 0 0 0 100.749532 60.345657 L 102.391774 48.660494 A 0.5 0.5 0 0 0 101.966227 48.095773 L 101.71866 48.06098 L 101.732577 47.961953 A 0.5 0.5 0 0 0 101.30703 47.397233 L 88.433545 45.587982 A 0.5 0.5 0 0 0 87.868824 46.01353 L 87.854907 46.112557 L 87.60734 46.077763 A 0.5 0.5 0 0 0 87.042619 46.503311 L 85.400377 58.188474 A 0.5 0.5 0 0 0 85.825924 58.753194 L 86.073491 58.787988 L 86.059574 58.887015 Z M 104.924179 61.538262 A 0.5 0.5 0 0 0 105.349727 62.102983 L 118.223212 63.912233 A 0.5 0.5 0 0 0 118.787932 63.486686 L 118.801849 63.387659 L 119.049417 63.422452 A 0.5 0.5 0 0 0 119.614137 62.996905 L 121.25638 51.311741 A 0.5 0.5 0 0 0 120.830832 50.747021 L 120.583265 50.712227 L 120.597182 50.613201 A 0.5 0.5 0 0 0 120.171635 50.04848 L 107.29815 48.23923 A 0.5 0.5 0 0 0 106.73343 48.664777 L 106.719512 48.763804 L 106.471945 48.729011 A 0.5 0.5 0 0 0 105.907225 49.154558 L 104.264982 60.839721 A 0.5 0.5 0 0 0 104.690529 61.404442 L 104.938097 61.439235 L 104.924179 61.538262 Z M 55.111414 73.77475 A 0.5 0.5 0 0 0 55.536962 74.33947 L 68.410447 76.14872 A 0.5 0.5 0 0 0 68.975167 75.723173 L 68.989085 75.624146 L 69.236652 75.658939 A 0.5 0.5 0 0 0 69.801372 75.233392 L 71.443615 63.548229 A 0.5 0.5 0 0 0 71.018067 62.983508 L 70.7705 62.948715 L 70.784418 62.849688 A 0.5 0.5 0 0 0 70.35887 62.284968 L 57.485385 60.475717 A 0.5 0.5 0 0 0 56.920665 60.901265 L 56.906747 61.000292 L 56.65918 60.965498 A 0.5 0.5 0 0 0 56.09446 61.391046 L 54.452217 73.076209 A 0.5 0.5 0 0 0 54.877765 73.640929 L 55.125332 73.675723 L 55.111414 73.77475 Z M 73.976022 76.425997 A 0.5 0.5 0 0 0 74.401569 76.990718 L 87.275054 78.799968 A 0.5 0.5 0 0 0 87.839775 78.374421 L 87.853692 78.275394 L 88.101259 78.310187 A 0.5 0.5 0 0 0 88.66598 77.88464 L 90.308222 66.199476 A 0.5 0.5 0 0 0 89.882675 65.634756 L 89.635108 65.599963 L 89.649025 65.500936 A 0.5 0.5 0 0 0 89.223478 64.936215 L 76.349993 63.126965 A 0.5 0.5 0 0 0 75.785272 63.552512 L 75.771355 63.651539 L 75.523788 63.616746 A 0.5 0.5 0 0 0 74.959067 64.042293 L 73.316825 75.727457 A 0.5 0.5 0 0 0 73.742372 76.292177 L 73.989939 76.32697 L 73.976022 76.425997 Z M 92.840629 79.077245 A 0.5 0.5 0 0 0 93.266176 79.641965 L 106.139661 81.451216 A 0.5 0.5 0 0 0 106.704382 81.025668 L 106.718299 80.926641 L 106.965866 80.961435 A 0.5 0.5 0 0 0 107.530587 80.535887 L 109.172829 68.850724 A 0.5 0.5 0 0 0 108.747282 68.286003 L 108.499715 68.25121 L 108.513632 68.152183 A 0.5 0.5 0 0 0 108.088085 67.587463 L 95.2146 65.778212 A 0.5 0.5 0 0 0 94.649879 66.20376 L 94.635962 66.302787 L 94.388395 66.267993 A 0.5 0.5 0 0 0 93.823674 66.693541 L 92.181432 78.378704 A 0.5 0.5 0 0 0 92.606979 78.943425 L 92.854546 78.978218 L 92.840629 79.077245 Z M 111.705236 81.728492 A 0.5 0.5 0 0 0 112.130784 82.293213 L 125.004269 84.102463 A 0.5 0.5 0 0 0 125.568989 83.676916 L 125.582907 83.577889 L 125.830474 83.612682 A 0.5 0.5 0 0 0 126.395194 83.187135 L 128.037437 71.501971 A 0.5 0.5 0 0 0 127.611889 70.937251 L 127.364322 70.902458 L 127.37824 70.803431 A 0.5 0.5 0 0 0 126.952692 70.23871 L 114.079207 68.42946 A 0.5 0.5 0 0 0 113.514487 68.855007 L 113.500569 68.954034 L 113.253002 68.919241 A 0.5 0.5 0 0 0 112.688282 69.344788 L 111.046039 81.029952 A 0.5 0.5 0 0 0 111.471587 81.594672 L 111.719154 81.629465 L 111.705236 81.728492 Z M 57.742258 93.381705 A 0.5 0.5 0 0 0 58.167805 93.946425 L 71.04129 95.755676 A 0.5 0.5 0 0 0 71.60601 95.330128 L 71.619928 95.231101 L 71.867495 95.265895 A 0.5 0.5 0 0 0 72.432215 94.840347 L 74.074458 83.155184 A 0.5 0.5 0 0 0 73.648911 82.590464 L 73.401343 82.55567 L 73.415261 82.456643 A 0.5 0.5 0 0 0 72.989713 81.891923 L 60.116228 80.082673 A 0.5 0.5 0 0 0 59.551508 80.50822 L 59.537591 80.607247 L 59.290023 80.572454 A 0.5 0.5 0 0 0 58.725303 80.998001 L 57.08306 92.683164 A 0.5 0.5 0 0 0 57.508608 93.247885 L 57.756175 93.282678 L 57.742258 93.381705 Z M 81.323016 96.695765 A 0.5 0.5 0 0 0 81.748564 97.260485 L 94.622048 99.069736 A 0.5 0.5 0 0 0 95.186769 98.644188 L 95.200686 98.545161 L 95.448253 98.579955 A 0.5 0.5 0 0 0 96.012974 98.154407 L 97.655217 86.469244 A 0.5 0.5 0 0 0 97.229669 85.904523 L 96.982102 85.86973 L 96.996019 85.770703 A 0.5 0.5 0 0 0 96.570472 85.205983 L 83.696987 83.396732 A 0.5 0.5 0 0 0 83.132266 83.82228 L 83.118349 83.921307 L 82.870782 83.886513 A 0.5 0.5 0 0 0 82.306062 84.312061 L 80.663819 95.997224 A 0.5 0.5 0 0 0 81.089366 96.561945 L 81.336933 96.596738 L 81.323016 96.695765 Z M 64.523313 113.571935 A 0.5 0.5 0 0 0 64.94886 114.136656 L 77.822345 115.945906 A 0.5 0.5 0 0 0 78.387066 115.520359 L 78.400983 115.421332 L 78.64855 115.456125 A 0.5 0.5 0 0 0 79.21327 115.030578 L 80.855513 103.345414 A 0.5 0.5 0 0 0 80.429966 102.780694 L 80.182399 102.7459 L 80.196316 102.646874 A 0.5 0.5 0 0 0 79.770768 102.082153 L 66.897284 100.272903 A 0.5 0.5 0 0 0 66.332563 100.69845 L 66.318646 100.797477 L 66.071079 100.762684 A 0.5 0.5 0 0 0 65.506358 101.188231 L 63.864115 112.873394 A 0.5 0.5 0 0 0 64.289663 113.438115 L 64.53723 113.472908 L 64.523313 113.571935 Z M 83.334894 116.600475 A 0.5 0.5 0 0 0 83.760442 117.165196 L 96.633927 118.974446 A 0.5 0.5 0 0 0 97.198647 118.548899 L 97.212564 118.449872 L 97.460132 118.484665 A 0.5 0.5 0 0 0 98.024852 118.059118 L 99.667095 106.373955 A 0.5 0.5 0 0 0 99.241547 105.809234 L 98.99398 105.774441 L 99.007897 105.675414 A 0.5 0.5 0 0 0 98.58235 105.110693 L 85.708865 103.301443 A 0.5 0.5 0 0 0 85.144145 103.726991 L 85.130227 103.826017 L 84.88266 103.791224 A 0.5 0.5 0 0 0 84.31794 104.216772 L 82.675697 115.901935 A 0.5 0.5 0 0 0 83.101244 116.466655 L 83.348812 116.501449 L 83.334894 116.600475 Z M 0.75 15.875622 A 0.5 0.5 0 0 0 1.25 16.375622 L 14.25 16.375622 A 0.5 0.5 0 0 0 14.75 15.875622 L 14.75 15.775622 L 15 15.775622 A 0.5 0.5 0 0 0 15.5 15.275622 L 15.5 3.475622 A 0.5 0.5 0 0 0 15 2.975622 L 14.75 2.975622 L 14.75 2.875622 A 0.5 0.5 0 0 0 14.25 2.375622 L 1.25 2.375622 A 0.5 0.5 0 0 0 0.75 2.875622 L 0.75 2.975622 L 0.5 2.975622 A 0.5 0.5 0 0 0 0 3.475622 L 0 15.275622 A 0.5 0.5 0 0 0 0.5 15.775622 L 0.75 15.775622 L 0.75 15.875622 Z M 19.8 15.875622 A 0.5 0.5 0 0 0 20.3 16.375622 L 33.3 16.375622 A 0.5 0.5 0 0 0 33.8 15.875622 L 33.8 15.775622 L 34.05 15.775622 A 0.5 0.5 0 0 0 34.55 15.275622 L 34.55 3.475622 A 0.5 0.5 0 0 0 34.05 2.975622 L 33.8 2.975622 L 33.8 2.875622 A 0.5 0.5 0 0 0 33.3 2.375622 L 20.3 2.375622 A 0.5 0.5 0 0 0 19.8 2.875622 L 19.8 2.975622 L 19.55 2.975622 A 0.5 0.5 0 0 0 19.05 3.475622 L 19.05 15.275622 A 0.5 0.5 0 0 0 19.55 15.775622 L 19.8 15.775622 L 19.8 15.875622 Z M 258.687 15.875622 A 0.5 0.5 0 0 0 259.187 16.375622 L 272.187 16.375622 A 0.5 0.5 0 0 0 272.687 15.875622 L 272.687 15.775622 L 272.937 15.775622 A 0.5 0.5 0 0 0 273.437 15.275622 L 273.437 3.475622 A 0.5 0.5 0 0 0 272.937 2.975622 L 272.687 2.975622 L 272.687 2.875622 A 0.5 0.5 0 0 0 272.187 2.375622 L 259.187 2.375622 A 0.5 0.5 0 0 0 258.687 2.875622 L 258.687 2.975622 L 258.437 2.975622 A 0.5 0.5 0 0 0 257.937 3.475622 L 257.937 15.275622 A 0.5 0.5 0 0 0 258.437 15.775622 L 258.687 15.775622 L 258.687 15.875622 Z M 277.737 15.875622 A 0.5 0.5 0 0 0 278.237 16.375622 L 291.237 16.375622 A 0.5 0.5 0 0 0 291.737 15.875622 L 291.737 15.775622 L 291.987 15.775622 A 0.5 0.5 0 0 0 292.487 15.275622 L 292.487 3.475622 A 0.5 0.5 0 0 0 291.987 2.975622 L 291.737 2.975622 L 291.737 2.875622 A 0.5 0.5 0 0 0 291.237 2.375622 L 278.237 2.375622 A 0.5 0.5 0 0 0 277.737 2.875622 L 277.737 2.975622 L 277.487 2.975622 A 0.5 0.5 0 0 0 276.987 3.475622 L 276.987 15.275622 A 0.5 0.5 0 0 0 277.487 15.775622 L 277.737 15.775622 L 277.737 15.875622 Z M 7.7985 34.925622 A 0.5 0.5 0 0 0 8.2985 35.425622 L 21.2985 35.425622 A 0.5 0.5 0 0 0 21.7985 34.925622 L 21.7985 34.825622 L 22.0485 34.825622 A 0.5 0.5 0 0 0 22.5485 34.325622 L 22.5485 22.525622 A 0.5 0.5 0 0 0 22.0485 22.025622 L 21.7985 22.025622 L 21.7985 21.925622 A 0.5 0.5 0 0 0 21.2985 21.425622 L 8.2985 21.425622 A 0.5 0.5 0 0 0 7.7985 21.925622 L 7.7985 22.025622 L 7.5485 22.025622 A 0.5 0.5 0 0 0 7.0485 22.525622 L 7.0485 34.325622 A 0.5 0.5 0 0 0 7.5485 34.825622 L 7.7985 34.825622 L 7.7985 34.925622 Z M 26.8485 34.925622 A 0.5 0.5 0 0 0 27.3485 35.425622 L 40.3485 35.425622 A 0.5 0.5 0 0 0 40.8485 34.925622 L 40.8485 34.825622 L 41.0985 34.825622 A 0.5 0.5 0 0 0 41.5985 34.325622 L 41.5985 22.525622 A 0.5 0.5 0 0 0 41.0985 22.025622 L 40.8485 22.025622 L 40.8485 21.925622 A 0.5 0.5 0 0 0 40.3485 21.425622 L 27.3485 21.425622 A 0.5 0.5 0 0 0 26.8485 21.925622 L 26.8485 22.025622 L 26.5985 22.025622 A 0.5 0.5 0 0 0 26.0985 22.525622 L 26.0985 34.325622 A 0.5 0.5 0 0 0 26.5985 34.825622 L 26.8485 34.825622 L 26.8485 34.925622 Z M 256.5915 34.925622 A 0.5 0.5 0 0 0 257.0915 35.425622 L 270.0915 35.425622 A 0.5 0.5 0 0 0 270.5915 34.925622 L 270.5915 34.825622 L 270.8415 34.825622 A 0.5 0.5 0 0 0 271.3415 34.325622 L 271.3415 22.525622 A 0.5 0.5 0 0 0 270.8415 22.025622 L 270.5915 22.025622 L 270.5915 21.925622 A 0.5 0.5 0 0 0 270.0915 21.425622 L 257.0915 21.425622 A 0.5 0.5 0 0 0 256.5915 21.925622 L 256.5915 22.025622 L 256.3415 22.025622 A 0.5 0.5 0 0 0 255.8415 22.525622 L 255.8415 34.325622 A 0.5 0.5 0 0 0 256.3415 34.825622 L 256.5915 34.825622 L 256.5915 34.925622 Z M 275.832 34.925622 A 0.5 0.5 0 0 0 276.332 35.425622 L 289.332 35.425622 A 0.5 0.5 0 0 0 289.832 34.925622 L 289.832 34.825622 L 290.082 34.825622 A 0.5 0.5 0 0 0 290.582 34.325622 L 290.582 22.525622 A 0.5 0.5 0 0 0 290.082 22.025622 L 289.832 22.025622 L 289.832 21.925622 A 0.5 0.5 0 0 0 289.332 21.425622 L 276.332 21.425622 A 0.5 0.5 0 0 0 275.832 21.925622 L 275.832 22.025622 L 275.582 22.025622 A 0.5 0.5 0 0 0 275.082 22.525622 L 275.082 34.325622 A 0.5 0.5 0 0 0 275.582 34.825622 L 275.832 34.825622 L 275.832 34.925622 Z M 10.0845 53.975622 A 0.5 0.5 0 0 0 10.5845 54.475622 L 23.5845 54.475622 A 0.5 0.5 0 0 0 24.0845 53.975622 L 24.0845 53.875622 L 24.3345 53.875622 A 0.5 0.5 0 0 0 24.8345 53.375622 L 24.8345 41.575622 A 0.5 0.5 0 0 0 24.3345 41.075622 L 24.0845 41.075622 L 24.0845 40.975622 A 0.5 0.5 0 0 0 23.5845 40.475622 L 10.5845 40.475622 A 0.5 0.5 0 0 0 10.0845 40.975622 L 10.0845 41.075622 L 9.8345 41.075622 A 0.5 0.5 0 0 0 9.3345 41.575622 L 9.3345 53.375622 A 0.5 0.5 0 0 0 9.8345 53.875622 L 10.0845 53.875622 L 10.0845 53.975622 Z M 28.944 53.975622 A 0.5 0.5 0 0 0 29.444 54.475622 L 42.444 54.475622 A 0.5 0.5 0 0 0 42.944 53.975622 L 42.944 53.875622 L 43.194 53.875622 A 0.5 0.5 0 0 0 43.694 53.375622 L 43.694 41.575622 A 0.5 0.5 0 0 0 43.194 41.075622 L 42.944 41.075622 L 42.944 40.975622 A 0.5 0.5 0 0 0 42.444 40.475622 L 29.444 40.475622 A 0.5 0.5 0 0 0 28.944 40.975622 L 28.944 41.075622 L 28.694 41.075622 A 0.5 0.5 0 0 0 28.194 41.575622 L 28.194 53.375622 A 0.5 0.5 0 0 0 28.694 53.875622 L 28.944 53.875622 L 28.944 53.975622 Z M 245.352 53.975622 A 0.5 0.5 0 0 0 245.852 54.475622 L 258.852 54.475622 A 0.5 0.5 0 0 0 259.352 53.975622 L 259.352 53.875622 L 259.602 53.875622 A 0.5 0.5 0 0 0 260.102 53.375622 L 260.102 41.575622 A 0.5 0.5 0 0 0 259.602 41.075622 L 259.352 41.075622 L 259.352 40.975622 A 0.5 0.5 0 0 0 258.852 40.475622 L 245.852 40.475622 A 0.5 0.5 0 0 0 245.352 40.975622 L 245.352 41.075622 L 245.102 41.075622 A 0.5 0.5 0 0 0 244.602 41.575622 L 244.602 53.375622 A 0.5 0.5 0 0 0 245.102 53.875622 L 245.352 53.875622 L 245.352 53.975622 Z M 264.402 53.975622 A 0.5 0.5 0 0 0 264.902 54.475622 L 277.902 54.475622 A 0.5 0.5 0 0 0 278.402 53.975622 L 278.402 53.875622 L 278.652 53.875622 A 0.5 0.5 0 0 0 279.152 53.375622 L 279.152 41.575622 A 0.5 0.5 0 0 0 278.652 41.075622 L 278.402 41.075622 L 278.402 40.975622 A 0.5 0.5 0 0 0 277.902 40.475622 L 264.902 40.475622 A 0.5 0.5 0 0 0 264.402 40.975622 L 264.402 41.075622 L 264.152 41.075622 A 0.5 0.5 0 0 0 263.652 41.575622 L 263.652 53.375622 A 0.5 0.5 0 0 0 264.152 53.875622 L 264.402 53.875622 L 264.402 53.975622 Z M 16.752 73.025622 A 0.5 0.5 0 0 0 17.252 73.525622 L 30.252 73.525622 A 0.5 0.5 0 0 0 30.752 73.025622 L 30.752 72.925622 L 31.002 72.925622 A 0.5 0.5 0 0 0 31.502 72.425622 L 31.502 60.625622 A 0.5 0.5 0 0 0 31.002 60.125622 L 30.752 60.125622 L 30.752 60.025622 A 0.5 0.5 0 0 0 30.252 59.525622 L 17.252 59.525622 A 0.5 0.5 0 0 0 16.752 60.025622 L 16.752 60.125622 L 16.502 60.125622 A 0.5 0.5 0 0 0 16.002 60.625622 L 16.002 72.425622 A 0.5 0.5 0 0 0 16.502 72.925622 L 16.752 72.925622 L 16.752 73.025622 Z M 35.802 73.025622 A 0.5 0.5 0 0 0 36.302 73.525622 L 49.302 73.525622 A 0.5 0.5 0 0 0 49.802 73.025622 L 49.802 72.925622 L 50.052 72.925622 A 0.5 0.5 0 0 0 50.552 72.425622 L 50.552 60.625622 A 0.5 0.5 0 0 0 50.052 60.125622 L 49.802 60.125622 L 49.802 60.025622 A 0.5 0.5 0 0 0 49.302 59.525622 L 36.302 59.525622 A 0.5 0.5 0 0 0 35.802 60.025622 L 35.802 60.125622 L 35.552 60.125622 A 0.5 0.5 0 0 0 35.052 60.625622 L 35.052 72.425622 A 0.5 0.5 0 0 0 35.552 72.925622 L 35.802 72.925622 L 35.802 73.025622 Z M 239.637 73.025622 A 0.5 0.5 0 0 0 240.137 73.525622 L 253.137 73.525622 A 0.5 0.5 0 0 0 253.637 73.025622 L 253.637 72.925622 L 253.887 72.925622 A 0.5 0.5 0 0 0 254.387 72.425622 L 254.387 60.625622 A 0.5 0.5 0 0 0 253.887 60.125622 L 253.637 60.125622 L 253.637 60.025622 A 0.5 0.5 0 0 0 253.137 59.525622 L 240.137 59.525622 A 0.5 0.5 0 0 0 239.637 60.025622 L 239.637 60.125622 L 239.387 60.125622 A 0.5 0.5 0 0 0 238.887 60.625622 L 238.887 72.425622 A 0.5 0.5 0 0 0 239.387 72.925622 L 239.637 72.925622 L 239.637 73.025622 Z M 258.687 73.025622 A 0.5 0.5 0 0 0 259.187 73.525622 L 272.187 73.525622 A 0.5 0.5 0 0 0 272.687 73.025622 L 272.687 72.925622 L 272.937 72.925622 A 0.5 0.5 0 0 0 273.437 72.425622 L 273.437 60.625622 A 0.5 0.5 0 0 0 272.937 60.125622 L 272.687 60.125622 L 272.687 60.025622 A 0.5 0.5 0 0 0 272.187 59.525622 L 259.187 59.525622 A 0.5 0.5 0 0 0 258.687 60.025622 L 258.687 60.125622 L 258.437 60.125622 A 0.5 0.5 0 0 0 257.937 60.625622 L 257.937 72.425622 A 0.5 0.5 0 0 0 258.437 72.925622 L 258.687 72.925622 L 258.687 73.025622 Z" vector-effect="non-scaling-stroke"/></g></svg>