0
SECTION
2
HEADER
9
$INSUNITS
70
4
9
$ACADVER
1
AC1014
9
$HANDSEED
5
FFFF
0
ENDSEC
0
SECTION
2
TABLES
0
TABLE
2
VPORT
5
8
100
AcDbSymbolTable
0
ENDTAB
0
TABLE
2
LTYPE
5
5
100
AcDbSymbolTable
0
LTYPE
5
14
100
AcDbSymbolTableRecord
100
AcDbLinetypeTableRecord
2
BYBLOCK
70
0
0
LTYPE
5
15
100
AcDbSymbolTableRecord
100
AcDbLinetypeTableRecord
2
BYLAYER
70
0
0
ENDTAB
0
TABLE
2
LAYER
5
2
100
AcDbSymbolTable
70
2
0
LAYER
5
50
100
AcDbSymbolTableRecord
100
AcDbLayerTableRecord
2
0
70
0
6
CONTINUOUS
0
ENDTAB
0
TABLE
2
STYLE
5
3
100
AcDbSymbolTable
70
1
0
STYLE
5
11
100
AcDbSymbolTableRecord
100
AcDbTextStyleTableRecord
2
STANDARD
70
0
0
ENDTAB
0
TABLE
2
VIEW
5
6
100
AcDbSymbolTable
70
0
0
ENDTAB
0
TABLE
2
UCS
5
7
100
AcDbSymbolTable
70
0
0
ENDTAB
0
TABLE
2
APPID
5
9
100
AcDbSymbolTable
70
2
0
APPID
5
12
100
AcDbSymbolTableRecord
100
AcDbRegAppTableRecord
2
ACAD
70
0
0
ENDTAB
0
TABLE
2
DIMSTYLE
5
A
100
AcDbSymbolTable
70
1
0
ENDTAB
0
TABLE
2
BLOCK_RECORD
5
1
100
AcDbSymbolTable
70
1
0
BLOCK_RECORD
5
1F
100
AcDbSymbolTableRecord
100
AcDbBlockTableRecord
2
*MODEL_SPACE
0
BLOCK_RECORD
5
1B
100
AcDbSymbolTableRecord
100
AcDbBlockTableRecord
2
*PAPER_SPACE
0
ENDTAB
0
ENDSEC
0
SECTION
2
BLOCKS
0
BLOCK
5
20
100
AcDbEntity
100
AcDbBlockBegin
2
*MODEL_SPACE
0
ENDBLK
5
21
100
AcDbEntity
100
AcDbBlockEnd
0
BLOCK
5
1C
100
AcDbEntity
100
AcDbBlockBegin
2
*PAPER_SPACE
0
ENDBLK
5
1D
100
AcDbEntity
100
AcDbBlockEnd
0
ENDSEC
0
SECTION
2
ENTITIES
0
ARC
5
100
100
AcDbEntity
8
0
100
AcDbCircle
10
209.26811927965687
20
211.69545339451744
30
0
40
62.176185386856126
210
0
220
0
230
1
100
AcDbArc
50
131.97205966596138
51
208.71231265752851
0
ARC
5
101
100
AcDbEntity
8
0
100
AcDbCircle
10
49.405271445388905
20
-181.61414467727013
30
0
40
455.17271505930017
210
0
220
-0
230
1
100
AcDbArc
50
74.938216798974679
51
95.194804318050601
0
ARC
5
102
100
AcDbEntity
8
0
100
AcDbCircle
10
159.68879361541212
20
255.60783388685692
30
0
40
152.34700419073152
210
0
220
0
230
1
100
AcDbArc
50
173.94078923060303
51
206.53855668878813
0
ARC
5
103
100
AcDbEntity
8
0
100
AcDbCircle
10
20.92304814542354
20
137.36317351124939
30
0
40
50.236831481169631
210
0
220
-0
230
1
100
AcDbArc
50
11.236069851498552
51
87.180708746722772
0
LINE
5
104
100
AcDbEntity
8
0
100
AcDbLine
10
125.30389302387488
20
139.40675247590639
30
0
11
70.19697435912741
21
147.15191361168635
31
0
0
ARC
5
105
100
AcDbEntity
8
0
100
AcDbCircle
10
157.73612610820211
20
148.32356534060546
30
0
40
33.635684837686767
210
0
220
0
230
1
100
AcDbArc
50
95.115684413958263
51
195.37288220226574
0
CIRCLE
5
106
100
AcDbEntity
8
0
100
AcDbCircle
10
92.785300000000021
20
184.42030000000003
30
0
40
1.4999999999999993
210
0
220
0
230
1
0
CIRCLE
5
107
100
AcDbEntity
8
0
100
AcDbCircle
10
116.50000173598528
20
203.00000086426735
30
0
40
1.5000000000000071
210
0
220
0
230
1
0
CIRCLE
5
108
100
AcDbEntity
8
0
100
AcDbCircle
10
69.000001028180122
20
209.00000095367432
30
0
40
1.5000000000000009
210
0
220
0
230
1
0
CIRCLE
5
109
100
AcDbEntity
8
0
100
AcDbCircle
10
117.00000174343586
20
241.00000143051147
30
0
40
1.5000000000000036
210
0
220
0
230
1
0
CIRCLE
5
110
100
AcDbEntity
8
0
100
AcDbCircle
10
58.039825
20
248.68349999999998
30
0
40
1.5000000000000036
210
0
220
0
230
1
0
LWPOLYLINE
5
111
100
AcDbEntity
8
0
100
AcDbPolyline
90
6
70
1
43
0.0
10
184.90604267048695
20
181.15390950462597
42
0.30731223733389129
10
176.67151512691754
20
257.91195847072305
42
-0.094665500348611445
10
335.78073004278269
20
271.12700000000007
42
-0.16584342760423457
10
317.53173004278267
20
186.97720000000004
42
0.33910770945841562
10
270.01098818257429
20
146.57067744350826
10
214.90250292839735
20
138.82112535098784
42
0.45977948298694221
0
CIRCLE
5
112
100
AcDbEntity
8
0
100
AcDbCircle
10
223.00000332295895
20
202.50000085681677
30
0
40
1.5000000000000024
210
0
220
0
230
1
0
CIRCLE
5
113
100
AcDbEntity
8
0
100
AcDbCircle
10
232.50000346451998
20
241.50000143796206
30
0
40
1.5000000000000002
210
0
220
0
230
1
0
CIRCLE
5
114
100
AcDbEntity
8
0
100
AcDbCircle
10
291.52581912946317
20
248.54631994532122
30
0
40
1.5000000000000058
210
0
220
0
230
1
0
CIRCLE
5
115
100
AcDbEntity
8
0
100
AcDbCircle
10
272.00000405311584
20
208.00000093877316
30
0
40
1.4999999999999949
210
0
220
0
230
1
0
CIRCLE
5
116
100
AcDbEntity
8
0
100
AcDbCircle
10
247.00000368058681
20
185.00000059604645
30
0
40
1.4999999999999858
210
0
220
0
230
1
0
LWPOLYLINE
5
117
100
AcDbEntity
8
0
100
AcDbPolyline
90
6
70
1
43
0.0
10
184.90604267048695
20
46.153909504625972
42
0.30731223733389146
10
176.67151512691754
20
122.91195847072302
42
-0.094665500348611445
10
335.78073004278269
20
136.12700000000007
42
-0.16584342760423468
10
317.53173004278267
20
51.977200000000011
42
0.33910770945841523
10
270.01098818257429
20
11.570677443508295
10
214.90250292839735
20
3.8211253509878764
42
0.45977948298694182
0
LWPOLYLINE
5
118
100
AcDbEntity
8
0
100
AcDbPolyline
90
20
70
1
43
0.0
10
206.34073004278264
20
68.411200000000036
10
206.47973004278259
20
67.421600000000012
10
220.3447300427826
20
69.368900000000025
10
220.20573004278265
20
70.359499999999997
10
220.99773004278262
20
70.471400000000017
10
220.56473004278263
20
73.541600000000003
10
219.77273004278263
20
73.428700000000021
10
218.96673004278261
20
79.173700000000025
10
219.75773004278261
20
79.283800000000014
10
219.32773004278263
20
82.354000000000013
10
218.5347300427826
20
82.242500000000007
10
218.39473004278264
20
83.233500000000021
10
204.53173004278261
20
81.284700000000001
10
204.67073004278262
20
80.294100000000014
10
203.87973004278263
20
80.183700000000016
10
204.3097300427826
20
77.11350000000003
10
205.10173004278261
20
77.224999999999994
10
205.9097300427826
20
71.481400000000008
10
205.11773004278263
20
71.369900000000001
10
205.54873004278264
20
68.29970000000003
0
LWPOLYLINE
5
119
100
AcDbEntity
8
0
100
AcDbPolyline
90
20
70
1
43
0.0
10
217.99373004278263
20
53.941599999999994
10
217.20173004278263
20
53.831600000000002
10
217.63273004278261
20
50.761300000000027
10
218.42373004278261
20
50.871400000000015
10
218.56373004278265
20
49.882200000000019
10
232.42773004278263
20
51.830600000000011
10
232.28873004278262
20
52.821600000000011
10
233.08073004278265
20
52.931600000000003
10
232.6487300427826
20
56.001800000000017
10
231.8567300427826
20
55.891800000000025
10
231.05073004278265
20
61.633899999999997
10
231.84173004278264
20
61.745400000000004
10
231.40973004278263
20
64.814600000000013
10
230.61773004278263
20
64.704200000000014
10
230.47873004278262
20
65.693699999999993
10
216.61573004278264
20
63.746399999999994
10
216.75373004278265
20
62.755800000000015
10
215.96273004278262
20
62.643900000000023
10
216.39373004278264
20
59.573700000000009
10
217.18573004278261
20
59.685600000000036
0
LWPOLYLINE
5
120
100
AcDbEntity
8
0
100
AcDbPolyline
90
20
70
1
43
0.0
10
71.431900000000013
20
71.657399999999996
10
71.292900000000003
20
70.668299999999988
10
70.500500000000002
20
70.779700000000005
10
70.06910000000002
20
67.709499999999991
10
70.861400000000003
20
67.597999999999999
10
70.053899999999999
20
61.855499999999992
10
69.263000000000005
20
61.965900000000005
10
68.830100000000002
20
58.895699999999991
10
69.623900000000006
20
58.785300000000014
10
69.483500000000021
20
57.794300000000014
10
83.347999999999999
20
55.8459
10
83.487000000000009
20
56.8369
10
84.277900000000002
20
56.725099999999991
10
84.710800000000006
20
59.795300000000005
10
83.918400000000005
20
59.905700000000017
10
84.725899999999996
20
65.650700000000001
10
85.516900000000007
20
65.539200000000022
10
85.949700000000021
20
68.608000000000004
10
85.156000000000006
20
68.719499999999996
10
85.296400000000006
20
69.710500000000025
0
LWPOLYLINE
5
121
100
AcDbEntity
8
0
100
AcDbPolyline
90
20
70
1
43
0.0
10
234.55873004278263
20
110.85100000000004
10
234.12773004278262
20
113.92099999999999
10
233.33573004278264
20
113.81000000000003
10
232.52773004278259
20
119.55400000000004
10
233.32073004278266
20
119.664
10
232.88873004278261
20
122.73500000000006
10
232.09673004278261
20
122.62300000000003
10
231.95873004278263
20
123.61400000000003
10
218.09473004278263
20
121.66500000000002
10
218.23373004278264
20
120.67400000000004
10
217.44173004278264
20
120.56400000000004
10
217.87273004278262
20
117.49400000000001
10
218.66473004278262
20
117.60600000000004
10
219.47273004278262
20
111.86199999999999
10
218.67873004278263
20
111.751
10
219.1117300427826
20
108.68000000000002
10
219.90373004278266
20
108.79190000000001
10
220.0417300427826
20
107.80090000000001
10
233.90573004278264
20
109.75000000000001
10
233.76673004278263
20
110.74000000000005
0
LWPOLYLINE
5
122
100
AcDbEntity
8
0
100
AcDbPolyline
90
20
70
1
43
0.0
10
268.19173004278258
20
105.32860000000002
10
268.98573004278268
20
105.44050000000001
10
268.55273004278263
20
108.5107
10
267.76173004278269
20
108.39780000000005
10
267.62273004278262
20
109.38840000000002
10
253.75773004278261
20
107.44000000000003
10
253.89773004278257
20
106.45050000000005
10
253.10473004278262
20
106.33900000000004
10
253.53773004278256
20
103.26880000000003
10
254.32973004278256
20
103.38030000000003
10
255.1357300427826
20
97.636700000000019
10
254.3437300427826
20
97.524900000000017
10
254.77473004278264
20
94.454599999999999
10
255.56773004278259
20
94.567900000000009
10
255.70673004278265
20
93.576900000000023
10
269.56973004278257
20
95.525300000000016
10
269.4317300427827
20
96.514800000000037
10
270.22273004278264
20
96.626300000000001
10
269.79273004278258
20
99.696899999999999
10
269.00073004278261
20
99.586500000000029
0
LWPOLYLINE
5
123
100
AcDbEntity
8
0
100
AcDbPolyline
90
20
70
1
43
0.0
10
257.48673004278265
20
84.586700000000008
10
257.05573004278267
20
87.657000000000025
10
256.26473004278256
20
87.545100000000033
10
256.12573004278266
20
88.536100000000033
10
242.26073004278265
20
86.587300000000027
10
242.40073004278261
20
85.596699999999998
10
241.60773004278258
20
85.486300000000028
10
242.03873004278265
20
82.416100000000014
10
242.83173004278257
20
82.526500000000027
10
243.63873004278264
20
76.784000000000034
10
242.84673004278264
20
76.672500000000028
10
243.27773004278259
20
73.602300000000014
10
244.07073004278263
20
73.71380000000002
10
244.20973004278264
20
72.723200000000006
10
258.07273004278261
20
74.671599999999998
10
257.93473004278258
20
75.662500000000037
10
258.72573004278269
20
75.772600000000025
10
258.29573004278262
20
78.842800000000011
10
257.50173004278264
20
78.732700000000023
10
256.69473004278262
20
84.476300000000037
0
LWPOLYLINE
5
124
100
AcDbEntity
8
0
100
AcDbPolyline
90
20
70
1
43
0.0
10
273.19373004278265
20
106.03170000000003
10
274.00173004278264
20
100.2878
10
273.2077300427826
20
100.17770000000002
10
273.63973004278262
20
97.107500000000016
10
274.43273004278257
20
97.217600000000033
10
274.57173004278263
20
96.228400000000036
10
288.43473004278258
20
98.17540000000001
10
288.29573004278262
20
99.166300000000007
10
289.08873004278269
20
99.279200000000003
10
288.65673004278267
20
102.348
10
287.86473004278258
20
102.23650000000004
10
287.05673004278259
20
107.98010000000005
10
287.8497300427826
20
108.09160000000003
10
287.41773004278264
20
111.16100000000003
10
286.62573004278261
20
111.05000000000004
10
286.4867300427826
20
112.04000000000001
10
272.62373004278265
20
110.09300000000003
10
272.76273004278255
20
109.10050000000001
10
271.96973004278266
20
108.99010000000004
10
272.40173004278267
20
105.91990000000003
0
LWPOLYLINE
5
125
100
AcDbEntity
8
0
100
AcDbPolyline
90
20
70
1
43
0.0
10
199.00873004278264
20
114.84100000000001
10
199.79973004278261
20
114.95500000000004
10
200.6067300427826
20
109.21060000000004
10
199.8147300427826
20
109.09910000000004
10
200.24573004278264
20
106.02890000000002
10
201.03873004278262
20
106.14040000000003
10
201.17773004278263
20
105.14980000000001
10
215.04073004278266
20
107.09960000000002
10
214.90273004278262
20
108.08910000000004
10
215.69373004278265
20
108.20060000000005
10
215.26373004278264
20
111.26900000000003
10
214.47173004278261
20
111.15900000000003
10
213.66373004278262
20
116.90200000000004
10
214.45673004278262
20
117.01400000000004
10
214.0237300427826
20
120.08400000000002
10
213.23273004278261
20
119.97199999999999
10
213.09373004278262
20
120.96300000000002
10
199.22873004278262
20
119.01400000000002
10
199.36773004278263
20
118.02500000000002
10
198.57573004278265
20
117.91200000000003
0
LWPOLYLINE
5
126
100
AcDbEntity
8
0
100
AcDbPolyline
90
20
70
1
43
0.0
10
230.82473004278259
20
103.2067
10
230.03273004278259
20
103.09630000000001
10
229.89373004278264
20
104.08580000000001
10
216.02873004278266
20
102.13850000000001
10
216.16773004278261
20
101.1465
10
215.37673004278264
20
101.036
10
215.80673004278265
20
97.96580000000003
10
216.60073004278263
20
98.077600000000018
10
217.40673004278264
20
92.333700000000007
10
216.61573004278264
20
92.223700000000008
10
217.04573004278262
20
89.153400000000005
10
217.83773004278262
20
89.263500000000022
10
217.97673004278263
20
88.274299999999997
10
231.84173004278264
20
90.222700000000032
10
231.7027300427826
20
91.213700000000017
10
232.49473004278261
20
91.323700000000017
10
232.06373004278265
20
94.393900000000031
10
231.26973004278261
20
94.282500000000027
10
230.46373004278263
20
100.02600000000001
10
231.25473004278263
20
100.1379
0
LWPOLYLINE
5
127
100
AcDbEntity
8
0
100
AcDbPolyline
90
20
70
1
43
0.0
10
307.6357300427826
20
109.07690000000002
10
307.6357300427826
20
110.077
10
293.6357300427826
20
110.077
10
293.6357300427826
20
109.07690000000002
10
292.83473004278267
20
109.07690000000002
10
292.83473004278267
20
105.97630000000002
10
293.6357300427826
20
105.97630000000002
10
293.6357300427826
20
100.17770000000002
10
292.83473004278267
20
100.17770000000002
10
292.83473004278267
20
97.077200000000019
10
293.6357300427826
20
97.077200000000019
10
293.6357300427826
20
96.076700000000017
10
307.6357300427826
20
96.076700000000017
10
307.6357300427826
20
97.077200000000019
10
308.43573004278255
20
97.077200000000019
10
308.43573004278255
20
100.17770000000002
10
307.6357300427826
20
100.17770000000002
10
307.6357300427826
20
105.97630000000002
10
308.43573004278255
20
105.97630000000002
10
308.43573004278255
20
109.07690000000002
0
LWPOLYLINE
5
128
100
AcDbEntity
8
0
100
AcDbPolyline
90
20
70
1
43
0.0
10
270.01773004278266
20
58.122700000000016
10
270.80973004278269
20
58.235600000000005
10
270.37873004278265
20
61.304400000000001
10
269.5857300427827
20
61.193000000000026
10
268.77873004278263
20
66.936500000000024
10
269.5707300427826
20
67.048400000000015
10
269.13973004278267
20
70.118600000000015
10
268.34773004278264
20
70.005700000000033
10
268.2077300427826
20
70.997699999999995
10
254.3437300427826
20
69.047900000000027
10
254.48473004278259
20
68.058400000000034
10
253.69173004278264
20
67.946900000000028
10
254.12273004278265
20
64.876300000000029
10
254.91573004278268
20
64.98820000000002
10
255.72173004278258
20
59.244600000000034
10
254.93073004278261
20
59.132700000000007
10
255.36073004278268
20
56.062500000000028
10
256.1547300427826
20
56.175400000000018
10
256.29373004278267
20
55.184800000000003
10
270.15673004278261
20
57.133200000000031
0
LWPOLYLINE
5
129
100
AcDbEntity
8
0
100
AcDbPolyline
90
20
70
1
43
0.0
10
251.39373004278258
20
122.20600000000002
10
252.18573004278258
20
122.316
10
251.75373004278259
20
125.38600000000002
10
250.96073004278264
20
125.274
10
250.82273004278261
20
126.26500000000004
10
236.95873004278263
20
124.31500000000003
10
237.09873004278265
20
123.32599999999999
10
236.30473004278261
20
123.21600000000004
10
236.73773004278263
20
120.14500000000005
10
237.52873004278263
20
120.25600000000004
10
238.33673004278265
20
114.51400000000004
10
237.54373004278264
20
114.40000000000005
10
237.97573004278266
20
111.33200000000002
10
238.76773004278263
20
111.44300000000001
10
238.90673004278261
20
110.45400000000001
10
252.77173004278256
20
112.40100000000001
10
252.63073004278266
20
113.39200000000002
10
253.42473004278264
20
113.50300000000004
10
252.99173004278262
20
116.57300000000004
10
252.20073004278265
20
116.46100000000004
0
LWPOLYLINE
5
130
100
AcDbEntity
8
0
100
AcDbPolyline
90
20
70
1
43
0.0
10
38.525799999999997
20
81.689700000000016
10
38.525799999999997
20
87.488299999999995
10
39.326599999999999
20
87.488299999999995
10
39.326599999999999
20
90.588899999999995
10
38.525799999999997
20
90.588899999999995
10
38.525799999999997
20
91.589399999999998
10
24.526299999999999
20
91.589399999999998
10
24.526299999999999
20
90.588899999999995
10
23.7271
20
90.588899999999995
10
23.7271
20
87.488299999999995
10
24.526299999999999
20
87.488299999999995
10
24.526299999999999
20
81.689700000000016
10
23.7271
20
81.689700000000016
10
23.7271
20
78.589200000000005
10
24.526299999999999
20
78.589200000000005
10
24.526299999999999
20
77.588700000000017
10
38.525799999999997
20
77.588700000000017
10
38.525799999999997
20
78.589200000000005
10
39.326599999999999
20
78.589200000000005
10
39.326599999999999
20
81.689700000000016
0
LWPOLYLINE
5
131
100
AcDbEntity
8
0
100
AcDbPolyline
90
20
70
1
43
0.0
10
260.9047300427826
20
85.067599999999999
10
261.69673004278263
20
85.177600000000027
10
262.50273004278262
20
79.435500000000019
10
261.71073004278259
20
79.322600000000023
10
262.14373004278264
20
76.253400000000013
10
262.93573004278261
20
76.365200000000016
10
263.07373004278264
20
75.375700000000023
10
276.93773004278262
20
77.323000000000022
10
276.79873004278267
20
78.313600000000037
10
277.58973004278266
20
78.425500000000028
10
277.1597300427826
20
81.495699999999999
10
276.36773004278257
20
81.382800000000017
10
275.5587300427826
20
87.127800000000022
10
276.35273004278264
20
87.237800000000021
10
275.92073004278268
20
90.308100000000024
10
275.12873004278265
20
90.196600000000018
10
274.98973004278258
20
91.187200000000033
10
261.1267300427827
20
89.237400000000022
10
261.26573004278259
20
88.247800000000012
10
260.47173004278267
20
88.136400000000037
0
LWPOLYLINE
5
132
100
AcDbEntity
8
0
100
AcDbPolyline
90
20
70
1
43
0.0
10
239.0697300427826
20
73.011000000000024
10
239.8617300427826
20
73.122500000000031
10
239.43073004278264
20
76.191699999999997
10
238.63873004278264
20
76.081300000000027
10
237.83073004278265
20
81.82380000000002
10
238.62273004278262
20
81.936700000000002
10
238.19173004278264
20
85.005500000000012
10
237.39973004278261
20
84.894000000000034
10
237.25973004278262
20
85.884600000000006
10
223.39573004278265
20
83.936200000000014
10
223.5347300427826
20
82.946700000000035
10
222.74373004278263
20
82.833800000000011
10
223.17573004278262
20
79.765000000000015
10
223.96773004278262
20
79.876400000000018
10
224.77373004278263
20
74.131400000000014
10
223.98273004278258
20
74.021000000000015
10
224.41273004278261
20
70.950800000000029
10
225.20673004278262
20
71.062600000000032
10
225.34573004278263
20
70.071700000000021
10
239.20873004278263
20
72.021500000000032
0
LWPOLYLINE
5
133
100
AcDbEntity
8
0
100
AcDbPolyline
90
20
70
1
43
0.0
10
276.68173004278265
20
62.077700000000036
10
275.8807300427826
20
62.077700000000036
10
275.8807300427826
20
58.977199999999996
10
276.68173004278265
20
58.977199999999996
10
276.68173004278265
20
57.976700000000037
10
290.68073004278267
20
57.976700000000037
10
290.68073004278267
20
58.977199999999996
10
291.48173004278266
20
58.977199999999996
10
291.48173004278266
20
62.077700000000036
10
290.68073004278267
20
62.077700000000036
10
290.68073004278267
20
67.876300000000001
10
291.48173004278266
20
67.876300000000001
10
291.48173004278266
20
70.976900000000001
10
290.68073004278267
20
70.976900000000001
10
290.68073004278267
20
71.977400000000031
10
276.68173004278265
20
71.977400000000031
10
276.68173004278265
20
70.976900000000001
10
275.8807300427826
20
70.976900000000001
10
275.8807300427826
20
67.876300000000001
10
276.68173004278265
20
67.876300000000001
0
LWPOLYLINE
5
134
100
AcDbEntity
8
0
100
AcDbPolyline
90
20
70
1
43
0.0
10
250.11973004278263
20
102.789
10
249.68873004278268
20
105.85920000000002
10
248.89673004278262
20
105.74770000000001
10
248.75673004278258
20
106.73730000000003
10
234.89373004278264
20
104.78850000000001
10
235.03373004278262
20
103.79900000000004
10
234.24073004278262
20
103.68750000000003
10
234.67273004278263
20
100.61870000000002
10
235.46473004278261
20
100.72880000000001
10
236.27073004278262
20
94.98520000000002
10
235.47973004278262
20
94.873700000000014
10
235.91073004278263
20
91.804600000000036
10
236.70373004278264
20
91.916399999999996
10
236.84273004278259
20
90.925399999999996
10
250.70573004278262
20
92.874200000000002
10
250.56773004278259
20
93.863400000000013
10
251.35873004278264
20
93.975200000000001
10
250.9277300427826
20
97.045400000000015
10
250.1357300427826
20
96.933900000000008
10
249.32773004278263
20
102.67750000000004
0
LWPOLYLINE
5
135
100
AcDbEntity
8
0
100
AcDbPolyline
90
20
70
1
43
0.0
10
77.137
20
80.096599999999995
10
77.944500000000005
20
85.840199999999982
10
78.736800000000002
20
85.728700000000018
10
79.166899999999998
20
88.798900000000003
10
78.375900000000001
20
88.910700000000006
10
78.515299999999996
20
89.899900000000002
10
64.652199999999993
20
91.848700000000008
10
64.512799999999999
20
90.857699999999994
10
63.719099999999997
20
90.969600000000014
10
63.289000000000001
20
87.900400000000019
10
64.080299999999994
20
87.788900000000012
10
63.273900000000005
20
82.045299999999997
10
62.481499999999997
20
82.155400000000014
10
62.049000000000007
20
79.086600000000004
10
62.841400000000007
20
78.975099999999998
10
62.701999999999998
20
77.985600000000019
10
76.566500000000005
20
76.036799999999999
10
76.705900000000014
20
77.026399999999995
10
77.498199999999997
20
76.914900000000017
10
77.929299999999998
20
79.985099999999989
0
LWPOLYLINE
5
136
100
AcDbEntity
8
0
100
AcDbPolyline
90
20
70
1
43
0.0
10
259.50173004278258
20
30.289099999999998
10
259.36273004278269
20
31.278500000000022
10
245.4997300427826
20
29.331400000000016
10
245.63873004278267
20
28.340500000000013
10
244.8447300427826
20
28.22890000000001
10
245.27773004278262
20
25.158699999999996
10
246.06873004278259
20
25.270299999999999
10
246.87573004278266
20
19.526600000000016
10
246.08373004278266
20
19.416390000000021
10
246.51673004278263
20
16.346090000000011
10
247.30873004278263
20
16.457709999999999
10
247.44673004278258
20
15.466900000000017
10
261.31073004278267
20
17.415470000000006
10
261.1717300427826
20
18.406280000000024
10
261.96473004278266
20
18.516520000000014
10
261.53273004278265
20
21.586800000000004
10
260.74073004278267
20
21.475200000000001
10
259.93273004278262
20
27.218800000000023
10
260.72573004278263
20
27.330500000000022
10
260.29373004278261
20
30.400700000000001
0
LWPOLYLINE
5
137
100
AcDbEntity
8
0
100
AcDbPolyline
90
20
70
1
43
0.0
10
211.5997300427826
20
97.374900000000011
10
212.39073004278265
20
97.486400000000017
10
211.95973004278261
20
100.55660000000003
10
211.1667300427826
20
100.44510000000002
10
211.02773004278262
20
101.43430000000002
10
197.16473004278259
20
99.487300000000005
10
197.30373004278263
20
98.496400000000008
10
196.51173004278263
20
98.384900000000002
10
196.94273004278259
20
95.314700000000016
10
197.73473004278259
20
95.426200000000023
10
198.54273004278258
20
89.682600000000008
10
197.75073004278261
20
89.572200000000038
10
198.18173004278265
20
86.50200000000001
10
198.97373004278265
20
86.613800000000012
10
199.11373004278261
20
85.622800000000012
10
212.97673004278263
20
87.571200000000005
10
212.83673004278262
20
88.560800000000029
10
213.63073004278263
20
88.672600000000017
10
213.19773004278261
20
91.742800000000031
10
212.40573004278261
20
91.631
0
LINE
5
138
100
AcDbEntity
8
0
100
AcDbLine
10
148.11110819285568
20
87.174933590388008
30
0
11
147.98447402042027
21
87.192731756109765
31
0
0
LWPOLYLINE
5
139
100
AcDbEntity
8
0
100
AcDbPolyline
90
20
70
1
43
0.0
10
301.44673004278263
20
91.0274
10
301.44673004278263
20
90.026900000000012
10
300.64573004278259
20
90.026900000000012
10
300.64573004278259
20
86.926300000000012
10
301.44673004278263
20
86.926300000000012
10
301.44673004278263
20
81.127700000000004
10
300.64573004278259
20
81.127700000000004
10
300.64573004278259
20
78.027200000000008
10
301.44673004278263
20
78.027200000000008
10
301.44673004278263
20
77.026700000000005
10
315.44573004278266
20
77.026700000000005
10
315.44573004278266
20
78.027200000000008
10
316.24673004278264
20
78.027200000000008
10
316.24673004278264
20
81.127700000000004
10
315.44573004278266
20
81.127700000000004
10
315.44573004278266
20
86.926300000000012
10
316.24673004278264
20
86.926300000000012
10
316.24673004278264
20
90.026900000000012
10
315.44573004278266
20
90.026900000000012
10
315.44573004278266
20
91.0274
0
ARC
5
140
100
AcDbEntity
8
0
100
AcDbCircle
10
209.26811927965684
20
76.695453394517429
30
0
40
62.17618538685619
210
0
220
0
230
1
100
AcDbArc
50
131.97205966596138
51
208.71231265752846
0
LWPOLYLINE
5
141
100
AcDbEntity
8
0
100
AcDbPolyline
90
20
70
1
43
0.0
10
82.137999999999991
20
79.393900000000002
10
81.345600000000005
20
79.505300000000005
10
80.914199999999994
20
76.435100000000006
10
81.706500000000005
20
76.323599999999999
10
81.56750000000001
20
75.334100000000007
10
95.432000000000002
20
73.385700000000014
10
95.570999999999998
20
74.376300000000001
10
96.362000000000023
20
74.26339999999999
10
96.79340000000002
20
77.333600000000018
10
96.001100000000008
20
77.44550000000001
10
96.808600000000013
20
83.188999999999993
10
97.600899999999996
20
83.078599999999994
10
98.03240000000001
20
86.147799999999989
10
97.240000000000009
20
86.259299999999996
10
97.378999999999991
20
87.248800000000003
10
83.515900000000002
20
89.197199999999995
10
83.376900000000006
20
88.206600000000009
10
82.584599999999995
20
88.319500000000005
10
82.153100000000009
20
85.249300000000005
10
82.945499999999996
20
85.1374
0
LWPOLYLINE
5
142
100
AcDbEntity
8
0
100
AcDbPolyline
90
20
70
1
43
0.0
10
255.82373004278264
20
126.96800000000003
10
255.96273004278262
20
125.97700000000003
10
255.17073004278262
20
125.86600000000004
10
255.60173004278258
20
122.79500000000006
10
256.39473004278261
20
122.90800000000004
10
257.20173004278263
20
117.16300000000004
10
256.4097300427826
20
117.05300000000001
10
256.84073004278264
20
113.98300000000003
10
257.63173004278264
20
114.09400000000005
10
257.7707300427827
20
113.10400000000001
10
271.63573004278265
20
115.05200000000002
10
271.49573004278261
20
116.04300000000002
10
272.28873004278262
20
116.15500000000004
10
271.85773004278263
20
119.22400000000003
10
271.06473004278263
20
119.11200000000001
10
270.25773004278261
20
124.85600000000002
10
271.04973004278258
20
124.96700000000004
10
270.6187300427826
20
128.03800000000001
10
269.82573004278271
20
127.926
10
269.68673004278264
20
128.917
0
LWPOLYLINE
5
143
100
AcDbEntity
8
0
100
AcDbPolyline
90
20
70
1
43
0.0
10
282.39673004278262
20
81.127700000000004
10
281.59573004278263
20
81.127700000000004
10
281.59573004278263
20
78.027200000000008
10
282.39673004278262
20
78.027200000000008
10
282.39673004278262
20
77.026700000000005
10
296.39573004278265
20
77.026700000000005
10
296.39573004278265
20
78.027200000000008
10
297.19673004278269
20
78.027200000000008
10
297.19673004278269
20
81.127700000000004
10
296.39573004278265
20
81.127700000000004
10
296.39573004278265
20
86.926300000000012
10
297.19673004278269
20
86.926300000000012
10
297.19673004278269
20
90.026900000000012
10
296.39573004278265
20
90.026900000000012
10
296.39573004278265
20
91.0274
10
282.39673004278262
20
91.0274
10
282.39673004278262
20
90.026900000000012
10
281.59573004278263
20
90.026900000000012
10
281.59573004278263
20
86.926300000000012
10
282.39673004278262
20
86.926300000000012
0
LWPOLYLINE
5
144
100
AcDbEntity
8
0
100
AcDbPolyline
90
20
70
1
43
0.0
10
309.73073004278262
20
71.977400000000031
10
295.73173004278266
20
71.977400000000031
10
295.73173004278266
20
70.976900000000001
10
294.93073004278261
20
70.976900000000001
10
294.93073004278261
20
67.876300000000001
10
295.73173004278266
20
67.876300000000001
10
295.73173004278266
20
62.077700000000036
10
294.93073004278261
20
62.077700000000036
10
294.93073004278261
20
58.977199999999996
10
295.73173004278266
20
58.977199999999996
10
295.73173004278266
20
57.976700000000037
10
309.73073004278262
20
57.976700000000037
10
309.73073004278262
20
58.977199999999996
10
310.53173004278267
20
58.977199999999996
10
310.53173004278267
20
62.077700000000036
10
309.73073004278262
20
62.077700000000036
10
309.73073004278262
20
67.876300000000001
10
310.53173004278267
20
67.876300000000001
10
310.53173004278267
20
70.976900000000001
10
309.73073004278262
20
70.976900000000001
0
LINE
5
145
100
AcDbEntity
8
0
100
AcDbLine
10
147.90233826464825
20
85.689532931617379
30
0
11
147.74904466209455
21
85.711078023987454
31
0
0
LWPOLYLINE
5
146
100
AcDbEntity
8
0
100
AcDbPolyline
90
20
70
1
43
0.0
10
126.26300000000001
20
121.66400000000002
10
112.40000000000002
20
123.614
10
112.25900000000001
20
122.62100000000002
10
111.46799999999999
20
122.735
10
111.03700000000002
20
119.664
10
111.828
20
119.55300000000001
10
111.02200000000002
20
113.809
10
110.229
20
113.92100000000001
10
109.79799999999999
20
110.85000000000001
10
110.58900000000001
20
110.739
10
110.45100000000002
20
109.74930000000001
10
124.31399999999999
20
107.8006
10
124.453
20
108.79150000000001
10
125.24600000000001
20
108.6786
10
125.67700000000002
20
111.74900000000001
10
124.88300000000001
20
111.86
10
125.69200000000002
20
117.60400000000001
10
126.485
20
117.49200000000002
10
126.91600000000001
20
120.563
10
126.12400000000001
20
120.67500000000001
0
CIRCLE
5
147
100
AcDbEntity
8
0
100
AcDbCircle
10
272.00000405311584
20
73.000000938773155
30
0
40
1.4999999999999949
210
0
220
0
230
1
0
LWPOLYLINE
5
148
100
AcDbEntity
8
0
100
AcDbPolyline
90
20
70
1
43
0.0
10
57.387100000000004
20
81.689700000000016
10
57.387100000000004
20
87.488299999999995
10
58.186500000000009
20
87.488299999999995
10
58.186500000000009
20
90.588899999999995
10
57.387100000000004
20
90.588899999999995
10
57.387100000000004
20
91.589399999999998
10
43.386000000000003
20
91.589399999999998
10
43.386000000000003
20
90.588899999999995
10
42.587000000000003
20
90.588899999999995
10
42.587000000000003
20
87.488299999999995
10
43.386000000000003
20
87.488299999999995
10
43.386000000000003
20
81.689700000000016
10
42.587000000000003
20
81.689700000000016
10
42.587000000000003
20
78.589200000000005
10
43.386000000000003
20
78.589200000000005
10
43.386000000000003
20
77.588700000000017
10
57.387100000000004
20
77.588700000000017
10
57.387100000000004
20
78.589200000000005
10
58.186500000000009
20
78.589200000000005
10
58.186500000000009
20
81.689700000000016
0
LWPOLYLINE
5
149
100
AcDbEntity
8
0
100
AcDbPolyline
90
20
70
1
43
0.0
10
275.70473004278261
20
116.63400000000003
10
276.49673004278259
20
116.74500000000002
10
276.63673004278263
20
115.75500000000005
10
290.50073004278266
20
117.70400000000002
10
290.3617300427826
20
118.69400000000002
10
291.15373004278263
20
118.80500000000005
10
290.72073004278269
20
121.87500000000003
10
289.9287300427826
20
121.76500000000004
10
289.12273004278256
20
127.50700000000002
10
289.91373004278262
20
127.61900000000004
10
289.48373004278261
20
130.68700000000001
10
288.69173004278258
20
130.57700000000006
10
288.55073004278262
20
131.56599999999997
10
274.68773004278268
20
129.62000000000003
10
274.82673004278257
20
128.62900000000002
10
274.03573004278263
20
128.517
10
274.4657300427827
20
125.44700000000003
10
275.25773004278261
20
125.55800000000005
10
276.06573004278266
20
119.81500000000004
10
275.2727300427826
20
119.70400000000005
0
LWPOLYLINE
5
150
100
AcDbEntity
8
0
100
AcDbPolyline
90
20
70
1
43
0.0
10
116.245
20
84.59869999999998
10
102.38
20
86.545699999999997
10
102.24200000000002
20
85.5565
10
101.45000000000002
20
85.666600000000003
10
101.01700000000001
20
82.596400000000017
10
101.81
20
82.4863
10
101.00200000000001
20
76.742400000000004
10
100.21100000000001
20
76.854200000000006
10
99.778300000000002
20
73.783999999999992
10
100.57200000000002
20
73.673600000000022
10
100.432
20
72.681600000000017
10
114.29600000000001
20
70.734200000000001
10
114.435
20
71.723800000000011
10
115.227
20
71.613299999999995
10
115.65899999999999
20
74.683600000000013
10
114.86600000000001
20
74.793999999999997
10
115.67399999999999
20
80.537599999999998
10
116.46500000000002
20
80.426099999999991
10
116.898
20
83.496300000000019
10
116.104
20
83.607799999999997
0
LWPOLYLINE
5
151
100
AcDbEntity
8
0
100
AcDbPolyline
90
20
70
1
43
0.0
10
65.044799999999995
20
62.639700000000005
10
64.244
20
62.639700000000005
10
64.244
20
68.438299999999998
10
65.044799999999995
20
68.438299999999998
10
65.044799999999995
20
71.538900000000012
10
64.244
20
71.538900000000012
10
64.244
20
72.539400000000001
10
50.244700000000009
20
72.539400000000001
10
50.244700000000009
20
71.538900000000012
10
49.443899999999999
20
71.538900000000012
10
49.443899999999999
20
68.438299999999998
10
50.244700000000009
20
68.438299999999998
10
50.244700000000009
20
62.639700000000005
10
49.443899999999999
20
62.639700000000005
10
49.443899999999999
20
59.539200000000001
10
50.244700000000009
20
59.539200000000001
10
50.244700000000009
20
58.538700000000006
10
64.244
20
58.538700000000006
10
64.244
20
59.539200000000001
10
65.044799999999995
20
59.539200000000001
0
LWPOLYLINE
5
152
100
AcDbEntity
8
0
100
AcDbPolyline
90
20
70
1
43
0.0
10
132.02700000000002
20
88.488800000000012
10
132.459
20
91.559000000000012
10
131.666
20
91.669499999999999
10
132.47399999999999
20
97.414500000000004
10
133.26599999999999
20
97.302999999999997
10
133.696
20
100.37179999999999
10
132.90500000000003
20
100.4847
10
133.04399999999998
20
101.4742
10
119.18100000000001
20
103.42260000000002
10
119.041
20
102.432
10
118.24799999999999
20
102.54350000000001
10
117.81800000000001
20
99.474700000000013
10
118.60900000000001
20
99.361800000000002
10
117.803
20
93.619299999999996
10
117.01100000000002
20
93.729700000000008
10
116.578
20
90.660900000000012
10
117.37000000000002
20
90.549000000000007
10
117.23100000000002
20
89.559500000000014
10
131.095
20
87.609700000000004
10
131.23500000000001
20
88.600700000000003
0
LWPOLYLINE
5
153
100
AcDbEntity
8
0
100
AcDbPolyline
90
20
70
1
43
0.0
10
134.96899999999999
20
80.956699999999998
10
135.108
20
81.947299999999998
10
121.245
20
83.894599999999997
10
121.10600000000002
20
82.905100000000004
10
120.31399999999999
20
83.016900000000007
10
119.88200000000001
20
79.946300000000008
10
120.67500000000001
20
79.834800000000001
10
119.867
20
74.091300000000018
10
119.075
20
74.202699999999993
10
118.64400000000001
20
71.132500000000007
10
119.43600000000002
20
71.021000000000001
10
119.29700000000003
20
70.031500000000023
10
133.16
20
68.083100000000002
10
133.29900000000004
20
69.073700000000002
10
134.09200000000001
20
68.962199999999996
10
134.524
20
72.03240000000001
10
133.72999999999999
20
72.142499999999998
10
134.53799999999998
20
77.886400000000009
10
135.33000000000001
20
77.774600000000021
10
135.762
20
80.844800000000006
0
LWPOLYLINE
5
154
100
AcDbEntity
8
0
100
AcDbPolyline
90
20
70
1
43
0.0
10
114.18000000000001
20
104.12570000000001
10
100.316
20
106.07410000000002
10
100.17700000000002
20
105.0831
10
99.384200000000007
20
105.19499999999999
10
98.952799999999996
20
102.12470000000002
10
99.745100000000008
20
102.01430000000001
10
98.937600000000003
20
96.270700000000019
10
98.145200000000017
20
96.380800000000008
10
97.713800000000006
20
93.310599999999994
10
98.506100000000018
20
93.200500000000005
10
98.367099999999994
20
92.209599999999995
10
112.23
20
90.261200000000002
10
112.37100000000001
20
91.251800000000003
10
113.163
20
91.140299999999996
10
113.59299999999999
20
94.210499999999996
10
112.80200000000001
20
94.322000000000003
10
113.60799999999999
20
100.0645
10
114.40100000000001
20
99.954099999999997
10
114.83200000000002
20
103.0243
10
114.041
20
103.13470000000001
0
LWPOLYLINE
5
155
100
AcDbEntity
8
0
100
AcDbPolyline
90
20
70
1
43
0.0
10
93.936599999999999
20
96.973500000000001
10
94.744100000000003
20
102.71559999999999
10
95.536799999999999
20
102.6056
10
95.9679
20
105.67440000000002
10
95.175600000000017
20
105.78619999999999
10
95.314899999999994
20
106.7754
10
81.450400000000002
20
108.7256
10
81.311000000000021
20
107.7346
10
80.520100000000014
20
107.84610000000001
10
80.088700000000003
20
104.77589999999999
10
80.879999999999995
20
104.6658
10
80.07350000000001
20
98.9208
10
79.279700000000005
20
99.03370000000001
10
78.850099999999998
20
95.963499999999996
10
79.641000000000005
20
95.850200000000001
10
79.503100000000003
20
94.861000000000004
10
93.366200000000021
20
92.912300000000002
10
93.505499999999998
20
93.903300000000002
10
94.297899999999998
20
93.791799999999995
10
94.729000000000013
20
96.860600000000005
0
LWPOLYLINE
5
156
100
AcDbEntity
8
0
100
AcDbPolyline
90
20
70
1
43
0.0
10
310.53173004278267
20
128.12700000000001
10
309.72973004278259
20
128.12700000000001
10
309.72973004278259
20
129.12700000000001
10
295.73073004278262
20
129.12700000000001
10
295.73073004278262
20
128.12700000000001
10
294.92973004278258
20
128.12700000000001
10
294.92973004278258
20
125.02600000000001
10
295.73073004278262
20
125.02600000000001
10
295.73073004278262
20
119.22800000000002
10
294.92973004278258
20
119.22800000000002
10
294.92973004278258
20
116.12700000000004
10
295.73073004278262
20
116.12700000000004
10
295.73073004278262
20
115.12700000000002
10
309.72973004278259
20
115.12700000000002
10
309.72973004278259
20
116.12700000000004
10
310.53173004278267
20
116.12700000000004
10
310.53173004278267
20
119.22800000000002
10
309.72973004278259
20
119.22800000000002
10
309.72973004278259
20
125.02600000000001
10
310.53173004278267
20
125.02600000000001
0
LWPOLYLINE
5
157
100
AcDbEntity
8
0
100
AcDbPolyline
90
20
70
1
43
0.0
10
314.78173004278261
20
115.12700000000002
10
328.78073004278264
20
115.12700000000002
10
328.78073004278264
20
116.12700000000004
10
329.58173004278262
20
116.12700000000004
10
329.58173004278262
20
119.22800000000002
10
328.78073004278264
20
119.22800000000002
10
328.78073004278264
20
125.02600000000001
10
329.58173004278262
20
125.02600000000001
10
329.58173004278262
20
128.12700000000001
10
328.78073004278264
20
128.12700000000001
10
328.78073004278264
20
129.12700000000001
10
314.78173004278261
20
129.12700000000001
10
314.78173004278261
20
128.12700000000001
10
313.97973004278253
20
128.12700000000001
10
313.97973004278253
20
125.02600000000001
10
314.78173004278261
20
125.02600000000001
10
314.78173004278261
20
119.22800000000002
10
313.97973004278253
20
119.22800000000002
10
313.97973004278253
20
116.12700000000004
10
314.78173004278261
20
116.12700000000004
0
LWPOLYLINE
5
158
100
AcDbEntity
8
0
100
AcDbPolyline
90
20
70
1
43
0.0
10
55.290900000000001
20
110.63900000000001
10
41.290199999999999
20
110.63900000000001
10
41.290199999999999
20
109.63890000000001
10
40.4908
20
109.63890000000001
10
40.4908
20
106.53830000000001
10
41.290199999999999
20
106.53830000000001
10
41.290199999999999
20
100.73970000000001
10
40.4908
20
100.73970000000001
10
40.4908
20
97.639200000000002
10
41.290199999999999
20
97.639200000000002
10
41.290199999999999
20
96.638700000000014
10
55.290900000000001
20
96.638700000000014
10
55.290900000000001
20
97.639200000000002
10
56.090300000000006
20
97.639200000000002
10
56.090300000000006
20
100.73970000000001
10
55.290900000000001
20
100.73970000000001
10
55.290900000000001
20
106.53830000000001
10
56.090300000000006
20
106.53830000000001
10
56.090300000000006
20
109.63890000000001
10
55.290900000000001
20
109.63890000000001
0
LWPOLYLINE
5
159
100
AcDbEntity
8
0
100
AcDbPolyline
90
20
70
1
43
0.0
10
326.87673004278253
20
96.076700000000017
10
326.87673004278253
20
97.077200000000019
10
327.67573004278262
20
97.077200000000019
10
327.67573004278262
20
100.17770000000002
10
326.87673004278253
20
100.17770000000002
10
326.87673004278253
20
105.97630000000002
10
327.67573004278262
20
105.97630000000002
10
327.67573004278262
20
109.07690000000002
10
326.87673004278253
20
109.07690000000002
10
326.87673004278253
20
110.077
10
312.87573004278261
20
110.077
10
312.87573004278261
20
109.07690000000002
10
312.07673004278263
20
109.07690000000002
10
312.07673004278263
20
105.97630000000002
10
312.87573004278261
20
105.97630000000002
10
312.87573004278261
20
100.17770000000002
10
312.07673004278263
20
100.17770000000002
10
312.07673004278263
20
97.077200000000019
10
312.87573004278261
20
97.077200000000019
10
312.87573004278261
20
96.076700000000017
0
LWPOLYLINE
5
160
100
AcDbEntity
8
0
100
AcDbPolyline
90
20
70
1
43
0.0
10
107.399
20
124.315
10
93.534400000000005
20
126.26400000000001
10
93.395100000000014
20
125.274
10
92.60420000000002
20
125.38400000000001
10
92.171300000000002
20
122.316
10
92.963999999999999
20
122.20399999999999
10
92.156099999999995
20
116.46000000000001
10
91.363800000000012
20
116.57200000000002
10
90.932700000000011
20
113.50200000000001
10
91.724999999999994
20
113.39
10
91.585700000000003
20
112.40100000000001
10
105.449
20
110.45200000000001
10
105.58799999999999
20
111.44200000000001
10
106.38200000000001
20
111.331
10
106.813
20
114.40000000000001
10
106.021
20
114.512
10
106.82700000000003
20
120.25500000000001
10
107.619
20
120.14400000000001
10
108.05200000000001
20
123.214
10
107.26000000000001
20
123.32600000000001
0
LWPOLYLINE
5
161
100
AcDbEntity
8
0
100
AcDbPolyline
90
20
70
1
43
0.0
10
75.878999999999991
20
105.3685
10
76.671300000000002
20
105.2556
10
77.104200000000006
20
108.32590000000002
10
76.310400000000001
20
108.43730000000001
10
76.450800000000001
20
109.42830000000001
10
62.586300000000001
20
111.37700000000002
10
62.447300000000006
20
110.38600000000002
10
61.655000000000008
20
110.49799999999999
10
61.223500000000008
20
107.42730000000002
10
62.015900000000002
20
107.3155
10
61.208400000000005
20
101.5719
10
60.416000000000011
20
101.68380000000001
10
59.984600000000007
20
98.614599999999996
10
60.776900000000005
20
98.503100000000003
10
60.637900000000009
20
97.512200000000021
10
74.501000000000005
20
95.563800000000015
10
74.640000000000001
20
96.554699999999997
10
75.433800000000005
20
96.442899999999995
10
75.865200000000002
20
99.514499999999998
10
75.072900000000004
20
99.623500000000007
0
LWPOLYLINE
5
162
100
AcDbEntity
8
0
100
AcDbPolyline
90
20
70
1
43
0.0
10
72.114099999999993
20
38.187800000000003
10
85.9786
20
36.239199999999997
10
86.11760000000001
20
37.230000000000004
10
86.910000000000011
20
37.118400000000008
10
87.341399999999993
20
40.188699999999997
10
86.549099999999996
20
40.298900000000003
10
87.356600000000014
20
46.0426
10
88.148899999999998
20
45.932200000000009
10
88.578999999999994
20
49.002800000000008
10
87.788000000000011
20
49.112799999999993
10
87.927000000000021
20
50.103800000000014
10
74.063900000000004
20
52.052200000000006
10
73.923500000000004
20
51.061599999999991
10
73.131200000000007
20
51.173000000000002
10
72.7012
20
48.102800000000002
10
73.492099999999994
20
47.990999999999993
10
72.686000000000007
20
42.247500000000002
10
71.893600000000006
20
42.359100000000005
10
71.460800000000006
20
39.288799999999995
10
72.253500000000003
20
39.17860000000001
0
LWPOLYLINE
5
163
100
AcDbEntity
8
0
100
AcDbPolyline
90
20
70
1
43
0.0
10
79.912300000000002
20
30.982000000000003
10
79.481200000000001
20
27.913099999999993
10
80.273499999999999
20
27.801500000000008
10
79.466000000000008
20
22.057800000000007
10
78.6751
20
22.169500000000006
10
78.242199999999997
20
19.099199999999996
10
79.034599999999998
20
18.987580000000008
10
78.895600000000002
20
17.998139999999996
10
92.759699999999995
20
16.049570000000006
10
92.899100000000004
20
17.039010000000001
10
93.689999999999998
20
16.927389999999995
10
94.122900000000001
20
19.99765
10
93.330500000000001
20
20.109300000000001
10
94.138000000000005
20
25.853000000000002
10
94.929000000000002
20
25.741300000000003
10
95.360399999999998
20
28.811599999999995
10
94.567700000000002
20
28.923199999999998
10
94.707099999999997
20
29.912600000000005
10
80.844000000000008
20
31.861200000000007
10
80.705000000000013
20
30.8704
0
LWPOLYLINE
5
164
100
AcDbEntity
8
0
100
AcDbPolyline
90
20
70
1
43
0.0
10
211.61473004278264
20
63.043600000000026
10
197.75173004278261
20
61.093800000000016
10
197.88973004278262
20
60.104299999999995
10
197.09873004278265
20
59.992800000000024
10
197.5297300427826
20
56.92260000000001
10
198.32073004278266
20
57.034100000000016
10
199.12873004278265
20
51.290499999999994
10
198.33573004278264
20
51.178699999999999
10
198.76873004278264
20
48.109900000000003
10
199.55973004278263
20
48.221699999999998
10
199.69873004278264
20
47.230699999999999
10
213.56373004278265
20
49.179100000000027
10
213.42373004278261
20
50.168700000000008
10
214.21673004278261
20
50.281599999999997
10
213.78373004278262
20
53.350700000000018
10
212.99273004278263
20
53.238900000000022
10
212.18473004278263
20
58.982500000000009
10
212.97773004278258
20
59.094300000000004
10
212.5467300427826
20
62.164500000000018
10
211.75373004278265
20
62.053000000000011
0
LWPOLYLINE
5
165
100
AcDbEntity
8
0
100
AcDbPolyline
90
20
70
1
43
0.0
10
228.0467300427826
20
45.104500000000023
10
228.47773004278258
20
42.035499999999999
10
229.26873004278264
20
42.147100000000002
10
230.07773004278263
20
36.403500000000015
10
229.28373004278262
20
36.291800000000016
10
229.71673004278261
20
33.222900000000024
10
230.50773004278258
20
33.333200000000005
10
230.64673004278262
20
32.343800000000016
10
244.51173004278263
20
34.290900000000022
10
244.37273004278256
20
35.283100000000012
10
245.16473004278257
20
35.393299999999996
10
244.73273004278258
20
38.463600000000007
10
243.94073004278266
20
38.352000000000004
10
243.13373004278264
20
44.095700000000022
10
243.92573004278265
20
44.205900000000007
10
243.49473004278263
20
47.276200000000017
10
242.70173004278266
20
47.164400000000022
10
242.56273004278259
20
48.155400000000022
10
228.69973004278262
20
46.206999999999994
10
228.8377300427826
20
45.215999999999994
0
LWPOLYLINE
5
166
100
AcDbEntity
8
0
100
AcDbPolyline
90
20
70
1
43
0.0
10
140.08000000000004
20
48.882800000000003
10
140.87299999999996
20
48.772400000000019
10
141.30400000000003
20
51.841200000000001
10
140.51300000000001
20
51.952999999999996
10
141.31899999999999
20
57.696600000000004
10
142.11199999999999
20
57.585100000000011
10
142.54300000000001
20
60.6554
10
141.751
20
60.765400000000014
10
141.88999999999999
20
61.756400000000014
10
128.02700000000002
20
63.704800000000006
10
127.88600000000002
20
62.714199999999991
10
127.095
20
62.825699999999998
10
126.66400000000002
20
59.755400000000009
10
127.45600000000002
20
59.645399999999995
10
126.64900000000002
20
53.90140000000001
10
125.85600000000001
20
54.011899999999997
10
125.42500000000001
20
50.943000000000005
10
126.21600000000001
20
50.83120000000001
10
126.07799999999999
20
49.840599999999995
10
139.941
20
47.893299999999996
0
CIRCLE
5
167
100
AcDbEntity
8
0
100
AcDbCircle
10
223.00000332295895
20
67.500000856816769
30
0
40
1.5000000000000024
210
0
220
0
230
1
0
LWPOLYLINE
5
168
100
AcDbEntity
8
0
100
AcDbPolyline
90
20
70
1
43
0.0
10
121.07600000000002
20
50.544800000000016
10
121.215
20
51.533900000000017
10
122.00900000000001
20
51.422500000000007
10
122.44
20
54.492699999999999
10
121.648
20
54.604500000000016
10
122.45400000000001
20
60.346699999999998
10
123.245
20
60.236300000000007
10
123.679
20
63.3065
10
122.887
20
63.416899999999998
10
123.02600000000001
20
64.407899999999998
10
109.161
20
66.35629999999999
10
109.02200000000001
20
65.365299999999991
10
108.23100000000002
20
65.477100000000007
10
107.798
20
62.406900000000007
10
108.59100000000001
20
62.296499999999995
10
107.783
20
56.55149999999999
10
106.99100000000001
20
56.664400000000015
10
106.56100000000002
20
53.594200000000001
10
107.352
20
53.482699999999994
10
107.21400000000001
20
52.491699999999994
0
LWPOLYLINE
5
169
100
AcDbEntity
8
0
100
AcDbPolyline
90
20
70
1
43
0.0
10
226.77373004278263
20
25.689200000000021
10
225.98073004278265
20
25.577600000000018
10
226.41173004278261
20
22.508700000000026
10
227.20473004278261
20
22.618900000000011
10
228.01273004278261
20
16.876640000000016
10
227.2197300427826
20
16.763639999999995
10
227.65073004278264
20
13.694760000000024
10
228.44373004278265
20
13.806380000000011
10
228.58273004278263
20
12.815570000000029
10
242.44573004278266
20
14.764130000000009
10
242.30773004278262
20
15.753529999999998
10
243.09873004278262
20
15.866560000000014
10
242.66773004278261
20
18.935450000000031
10
241.87573004278264
20
18.823830000000008
10
241.06773004278261
20
24.567499999999995
10
241.85973004278259
20
24.679099999999998
10
241.4287300427826
20
27.749400000000009
10
240.63773004278261
20
27.637700000000009
10
240.49873004278265
20
28.628500000000017
10
226.63373004278264
20
26.67860000000001
0
LINE
5
170
100
AcDbEntity
8
0
100
AcDbLine
10
125.30389302387482
20
4.4067524759064014
30
0
11
70.196974359127424
21
12.151913611686354
31
0
0
LINE
5
171
100
AcDbEntity
8
0
100
AcDbLine
10
228.7658430836895
20
5.7724822591010039
30
0
11
214.90250292839735
21
3.8211253509878773
31
0
0
LWPOLYLINE
5
172
100
AcDbEntity
8
0
100
AcDbPolyline
90
20
70
1
43
0.0
10
236.85773004278261
20
56.593100000000014
10
236.06573004278263
20
56.481600000000007
10
236.49673004278264
20
53.412500000000023
10
237.28873004278262
20
53.5229
10
237.42773004278263
20
52.533300000000018
10
251.29273004278264
20
54.482100000000031
10
251.15373004278266
20
55.47270000000001
10
251.94573004278266
20
55.583100000000023
10
251.51473004278262
20
58.653300000000002
10
250.72073004278269
20
58.541500000000006
10
249.91473004278265
20
64.28540000000001
10
250.70573004278262
20
64.396900000000016
10
250.27573004278264
20
67.465700000000027
10
249.48373004278264
20
67.355599999999995
10
249.3437300427826
20
68.344799999999992
10
235.47973004278262
20
66.3964
10
235.6187300427826
20
65.406900000000007
10
234.8277300427826
20
65.295400000000001
10
235.25773004278261
20
62.226600000000012
10
236.05073004278265
20
62.336700000000036
0
LWPOLYLINE
5
173
100
AcDbEntity
8
0
100
AcDbPolyline
90
20
70
1
43
0.0
10
112.16000000000001
20
45.686999999999998
10
111.369
20
45.798799999999993
10
111.50800000000001
20
46.789400000000008
10
97.643600000000021
20
48.736800000000002
10
97.504600000000011
20
47.747200000000007
10
96.712300000000013
20
47.858699999999992
10
96.282200000000003
20
44.78860000000001
10
97.073200000000014
20
44.677000000000007
10
96.267100000000013
20
38.934700000000007
10
95.473300000000009
20
39.044899999999991
10
95.041899999999998
20
35.975999999999999
10
95.83420000000001
20
35.864399999999996
10
95.6952
20
34.875000000000007
10
109.56000000000002
20
32.9251
10
109.69900000000001
20
33.917199999999994
10
110.49100000000001
20
33.804200000000009
10
110.923
20
36.874499999999998
10
110.13
20
36.984700000000004
10
110.93600000000002
20
42.728400000000008
10
111.73000000000002
20
42.618200000000002
0
ARC
5
174
100
AcDbEntity
8
0
100
AcDbCircle
10
49.405271445388948
20
-316.61414467727025
30
0
40
455.17271505930017
210
0
220
-0
230
1
100
AcDbArc
50
74.938216798974665
51
95.194804318050601
0
LINE
5
175
100
AcDbEntity
8
0
100
AcDbLine
10
125.30389302387482
20
4.4067524759064014
30
0
11
122.33309170633353
21
4.8242923323212494
31
0
0
LWPOLYLINE
5
176
100
AcDbEntity
8
0
100
AcDbPolyline
90
20
70
1
43
0.0
10
102.35100000000001
20
54.185400000000001
10
103.143
20
54.073899999999995
10
103.57600000000002
20
57.144200000000005
10
102.783
20
57.255600000000015
10
103.59000000000002
20
62.999200000000002
10
104.38200000000002
20
62.887699999999995
10
104.81299999999999
20
65.956600000000009
10
104.02100000000002
20
66.069800000000001
10
104.16
20
67.058999999999997
10
90.295900000000003
20
69.007700000000014
10
90.157999999999987
20
68.016800000000018
10
89.365700000000018
20
68.128300000000024
10
88.934600000000017
20
65.058000000000007
10
89.726900000000001
20
64.9465
10
88.919399999999996
20
59.204399999999993
10
88.127100000000013
20
59.314500000000017
10
87.695599999999999
20
56.24560000000001
10
88.488
20
56.133799999999994
10
88.34899999999999
20
55.143200000000014
10
102.21200000000002
20
53.194499999999998
0
LWPOLYLINE
5
177
100
AcDbEntity
8
0
100
AcDbPolyline
90
20
70
1
43
0.0
10
252.86473004278267
20
39.60600000000003
10
253.29773004278263
20
36.53570000000002
10
254.08873004278266
20
36.647400000000019
10
254.22773004278258
20
35.657899999999998
10
268.09273004278259
20
37.605100000000036
10
267.9527300427826
20
38.595900000000007
10
268.74573004278267
20
38.707600000000006
10
268.31273004278262
20
41.776400000000002
10
267.52173004278268
20
41.666200000000018
10
266.71473004278261
20
47.408500000000018
10
267.50673004278258
20
47.520000000000024
10
267.07573004278265
20
50.590200000000003
10
266.28173004278261
20
50.478799999999993
10
266.14373004278269
20
51.469700000000032
10
252.28073004278261
20
49.521000000000015
10
252.41873004278264
20
48.531400000000033
10
251.62773004278262
20
48.418500000000009
10
252.05873004278263
20
45.349700000000013
10
252.8497300427826
20
45.461200000000019
10
253.65773004278256
20
39.717600000000033
0
CIRCLE
5
178
100
AcDbEntity
8
0
100
AcDbCircle
10
92.785300000000021
20
49.420300000000012
30
0
40
1.4999999999999993
210
0
220
0
230
1
0
LWPOLYLINE
5
179
100
AcDbEntity
8
0
100
AcDbPolyline
90
20
70
1
43
0.0
10
113.79255028550553
20
23.091003816185047
10
114.22395028550554
20
26.16130381618504
10
113.43125028550553
20
26.272903816185043
10
113.57065028550554
20
27.262303816185049
10
99.707550285505533
20
29.210903816185052
10
99.568550285505523
20
28.220103816185045
10
98.775850285505541
20
28.331703816185048
10
98.34475028550554
20
25.262803816185038
10
99.137050285505524
20
25.151203816185053
10
98.329550285505547
20
19.407503816185034
10
97.538650285505526
20
19.519203816185033
10
97.105750285505536
20
16.448903816185041
10
97.898150285505523
20
16.337283816185035
10
97.759150285505541
20
15.347843816185041
10
111.62325028550552
20
13.399273816185051
10
111.76265028550553
20
14.388713816185046
10
112.55355028550554
20
14.27709381618504
10
112.98645028550553
20
17.347353816185045
10
112.19405028550554
20
17.459003816185046
10
113.00155028550552
20
23.202703816185046
0
CIRCLE
5
180
100
AcDbEntity
8
0
100
AcDbCircle
10
116.50000173598528
20
68.000000864267349
30
0
40
1.5000000000000071
210
0
220
0
230
1
0
CIRCLE
5
181
100
AcDbEntity
8
0
100
AcDbCircle
10
247.00000368058681
20
50.000000596046448
30
0
40
1.4999999999999858
210
0
220
0
230
1
0
ARC
5
182
100
AcDbEntity
8
0
100
AcDbCircle
10
157.73612610820209
20
13.323565340605423
30
0
40
33.635684837686782
210
0
220
0
230
1
100
AcDbArc
50
95.115684413958292
51
195.37288220226569
0
LWPOLYLINE
5
183
100
AcDbEntity
8
0
100
AcDbPolyline
90
20
70
1
43
0.0
10
86.724100000000007
20
114.093
10
87.516400000000004
20
113.98299999999999
10
87.947900000000004
20
117.05100000000002
10
87.155500000000004
20
117.16300000000001
10
87.963000000000008
20
122.90700000000001
10
88.755399999999995
20
122.795
10
89.186800000000005
20
125.86600000000001
10
88.394099999999995
20
125.976
10
88.533500000000004
20
126.96700000000001
10
74.668899999999994
20
128.91500000000002
10
74.530000000000001
20
127.926
10
73.738699999999994
20
128.036
10
73.307599999999994
20
124.96600000000001
10
74.099900000000005
20
124.85500000000002
10
73.292400000000001
20
119.11200000000001
10
72.500100000000003
20
119.223
10
72.068600000000004
20
116.15299999999999
10
72.861000000000018
20
116.04100000000001
10
72.721999999999994
20
115.051
10
86.585099999999997
20
113.10400000000001
0
ARC
5
184
100
AcDbEntity
8
0
100
AcDbCircle
10
159.68879361541215
20
120.60783388685695
30
0
40
152.34700419073152
210
0
220
0
230
1
100
AcDbArc
50
173.94078923060303
51
206.53855668878813
0
CIRCLE
5
185
100
AcDbEntity
8
0
100
AcDbCircle
10
291.52581912946317
20
113.5463199453212
30
0
40
1.5000000000000058
210
0
220
0
230
1
0
CIRCLE
5
186
100
AcDbEntity
8
0
100
AcDbCircle
10
232.50000346451998
20
106.50000143796206
30
0
40
1.5000000000000002
210
0
220
0
230
1
0
CIRCLE
5
187
100
AcDbEntity
8
0
100
AcDbCircle
10
69.000001028180122
20
74.000000953674316
30
0
40
1.5000000000000009
210
0
220
0
230
1
0
LWPOLYLINE
5
188
100
AcDbEntity
8
0
100
AcDbPolyline
90
20
70
1
43
0.0
10
22.240200000000002
20
96.638700000000014
10
36.240900000000011
20
96.638700000000014
10
36.240900000000011
20
97.639200000000002
10
37.040300000000002
20
97.639200000000002
10
37.040300000000002
20
100.73970000000001
10
36.240900000000011
20
100.73970000000001
10
36.240900000000011
20
106.53830000000001
10
37.040300000000002
20
106.53830000000001
10
37.040300000000002
20
109.63890000000001
10
36.240900000000011
20
109.63890000000001
10
36.240900000000011
20
110.63900000000001
10
22.240200000000002
20
110.63900000000001
10
22.240200000000002
20
109.63890000000001
10
21.440899999999999
20
109.63890000000001
10
21.440899999999999
20
106.53830000000001
10
22.240200000000002
20
106.53830000000001
10
22.240200000000002
20
100.73970000000001
10
21.440899999999999
20
100.73970000000001
10
21.440899999999999
20
97.639200000000002
10
22.240200000000002
20
97.639200000000002
0
LWPOLYLINE
5
189
100
AcDbEntity
8
0
100
AcDbPolyline
90
20
70
1
43
0.0
10
33.4422
20
119.79000000000001
10
33.4422
20
116.68900000000001
10
34.241500000000002
20
116.68900000000001
10
34.241500000000002
20
115.68899999999999
10
48.241000000000014
20
115.68899999999999
10
48.241000000000014
20
116.68900000000001
10
49.041800000000002
20
116.68900000000001
10
49.041800000000002
20
119.79000000000001
10
48.241000000000014
20
119.79000000000001
10
48.241000000000014
20
125.58799999999999
10
49.041800000000002
20
125.58799999999999
10
49.041800000000002
20
128.68899999999999
10
48.241000000000014
20
128.68899999999999
10
48.241000000000014
20
129.68899999999999
10
34.241500000000002
20
129.68899999999999
10
34.241500000000002
20
128.68899999999999
10
33.4422
20
128.68899999999999
10
33.4422
20
125.58799999999999
10
34.241500000000002
20
125.58799999999999
10
34.241500000000002
20
119.79000000000001
0
LWPOLYLINE
5
190
100
AcDbEntity
8
0
100
AcDbPolyline
90
20
70
1
43
0.0
10
45.994799999999998
20
62.639700000000005
10
45.194000000000003
20
62.639700000000005
10
45.194000000000003
20
68.438299999999998
10
45.994799999999998
20
68.438299999999998
10
45.994799999999998
20
71.538900000000012
10
45.194000000000003
20
71.538900000000012
10
45.194000000000003
20
72.539400000000001
10
31.194700000000001
20
72.539400000000001
10
31.194700000000001
20
71.538900000000012
10
30.394000000000005
20
71.538900000000012
10
30.394000000000005
20
68.438299999999998
10
31.194700000000001
20
68.438299999999998
10
31.194700000000001
20
62.639700000000005
10
30.394000000000005
20
62.639700000000005
10
30.394000000000005
20
59.539200000000001
10
31.194700000000001
20
59.539200000000001
10
31.194700000000001
20
58.538700000000006
10
45.194000000000003
20
58.538700000000006
10
45.194000000000003
20
59.539200000000001
10
45.994799999999998
20
59.539200000000001
0
ARC
5
191
100
AcDbEntity
8
0
100
AcDbCircle
10
20.92304814542355
20
2.3631735112493857
30
0
40
50.236831481169631
210
0
220
-0
230
1
100
AcDbArc
50
11.236069851498552
51
87.180708746722772
0
LWPOLYLINE
5
192
100
AcDbEntity
8
0
100
AcDbPolyline
90
20
70
1
43
0.0
10
29.192400000000003
20
128.68899999999999
10
29.192400000000003
20
129.68899999999999
10
15.1929
20
129.68899999999999
10
15.1929
20
128.68899999999999
10
14.392200000000003
20
128.68899999999999
10
14.392200000000003
20
125.58799999999999
10
15.1929
20
125.58799999999999
10
15.1929
20
119.79000000000001
10
14.392200000000003
20
119.79000000000001
10
14.392200000000003
20
116.68900000000001
10
15.1929
20
116.68900000000001
10
15.1929
20
115.68899999999999
10
29.192400000000003
20
115.68899999999999
10
29.192400000000003
20
116.68900000000001
10
29.991599999999998
20
116.68900000000001
10
29.991599999999998
20
119.79000000000001
10
29.192400000000003
20
119.79000000000001
10
29.192400000000003
20
125.58799999999999
10
29.991599999999998
20
125.58799999999999
10
29.991599999999998
20
128.68899999999999
0
LWPOLYLINE
5
193
100
AcDbEntity
8
0
100
AcDbPolyline
90
20
70
1
43
0.0
10
129.886
20
111.158
10
129.09299999999999
20
111.26899999999999
10
128.66200000000001
20
108.19890000000001
10
129.45400000000001
20
108.0874
10
129.315
20
107.0979
10
143.178
20
105.1495
10
143.31899999999999
20
106.13900000000001
10
144.11099999999999
20
106.0286
10
144.541
20
109.09739999999999
10
143.75
20
109.20920000000001
10
144.55600000000001
20
114.953
10
145.34999999999999
20
114.84200000000001
10
145.78
20
117.91200000000002
10
144.989
20
118.02300000000001
10
145.12799999999999
20
119.01299999999999
10
131.26400000000001
20
120.961
10
131.12400000000002
20
119.97100000000002
10
130.33199999999999
20
120.08200000000002
10
129.90100000000001
20
117.01300000000001
10
130.69299999999998
20
116.90100000000001
0
CIRCLE
5
194
100
AcDbEntity
8
0
100
AcDbCircle
10
117.00000174343586
20
106.00000143051147
30
0
40
1.5000000000000036
210
0
220
0
230
1
0
LWPOLYLINE
5
195
100
AcDbEntity
8
0
100
AcDbPolyline
90
20
70
1
43
0.0
10
54.426900000000003
20
121.76299999999999
10
53.63600000000001
20
121.875
10
53.203500000000005
20
118.80400000000002
10
53.995800000000003
20
118.69300000000001
10
53.856499999999997
20
117.70299999999999
10
67.721000000000004
20
115.75299999999999
10
67.859999999999999
20
116.744
10
68.651300000000006
20
116.633
10
69.083799999999997
20
119.703
10
68.291399999999996
20
119.81400000000001
10
69.098900000000015
20
125.55799999999999
10
69.889899999999997
20
125.447
10
70.322699999999998
20
128.51500000000001
10
69.528999999999996
20
128.62899999999999
10
69.668000000000006
20
129.61799999999999
10
55.805199999999999
20
131.56700000000001
10
55.665900000000008
20
130.57600000000002
10
54.8735
20
130.68700000000001
10
54.442100000000011
20
127.61800000000001
10
55.234400000000008
20
127.50700000000002
0
LINE
5
196
100
AcDbEntity
8
0
100
AcDbLine
10
167.68666794681565
20
122.92164655721761
30
0
11
164.78786219794068
21
123.69425592183168
31
0
0
CIRCLE
5
197
100
AcDbEntity
8
0
100
AcDbCircle
10
58.039825
20
113.6835
30
0
40
1.5000000000000036
210
0
220
0
230
1
0
ENDSEC
0
SECTION
2
OBJECTS
0
DICTIONARY
5
C
100
AcDbDictionary
3
ACAD_GROUP
350
D
3
ACAD_MLINESTYLE
350
17
0
DICTIONARY
5
D
100
AcDbDictionary
0
DICTIONARY
5
1A
330
C
100
AcDbDictionary
0
DICTIONARY
5
17
100
AcDbDictionary
0
ENDSEC
0
EOF
